<svg version="1.1" id="Layer_1" xmlns="http://www.w3.org/2000/svg" xmlns:xlink="http://www.w3.org/1999/xlink" x="0px" y="0px"
	 width="100%" viewBox="0 0 640 640" enable-background="new 0 0 640 640" xml:space="preserve">
<path fill="#FEFEFE" opacity="1.000000" stroke="none" 
	d="
M340.000000,641.000000 
	C226.666687,641.000000 113.833374,641.000000 1.000045,641.000000 
	C1.000030,427.666718 1.000030,214.333450 1.000015,1.000131 
	C214.333237,1.000087 427.666473,1.000087 640.999756,1.000044 
	C640.999878,214.333191 640.999878,427.666382 640.999939,640.999756 
	C540.833313,641.000000 440.666656,641.000000 340.000000,641.000000 
M67.696892,98.499863 
	C67.696892,257.729126 67.696892,416.958405 67.696892,575.992554 
	C236.864456,575.992554 405.374329,575.992554 573.842346,575.992554 
	C573.842346,405.530792 573.842346,235.476334 573.842346,65.271904 
	C405.037964,65.271904 236.512039,65.271904 67.696877,65.271904 
	C67.696877,76.209877 67.696877,86.854866 67.696892,98.499863 
z"/>
<path fill="#010101" opacity="1.000000" stroke="none" 
	d="
M67.696884,97.999863 
	C67.696877,86.854866 67.696877,76.209877 67.696877,65.271904 
	C236.512039,65.271904 405.037964,65.271904 573.842346,65.271904 
	C573.842346,235.476334 573.842346,405.530792 573.842346,575.992554 
	C405.374329,575.992554 236.864456,575.992554 67.696892,575.992554 
	C67.696892,416.958405 67.696892,257.729126 67.696884,97.999863 
M354.623444,434.939240 
	C355.096710,434.578400 355.569977,434.217590 356.852203,433.632263 
	C358.239594,433.709167 359.626953,433.786041 361.151978,434.645020 
	C363.981903,436.596649 366.699280,437.409027 369.440674,433.643982 
	C369.765533,433.689514 370.090424,433.735046 371.301666,433.849304 
	C371.870361,432.485107 372.921265,431.125153 372.933289,429.756073 
	C373.055573,415.809998 373.044128,401.862152 372.952179,387.915619 
	C372.943390,386.579010 372.137817,385.247620 371.424774,383.326904 
	C371.551636,382.709473 371.678497,382.092041 371.888702,380.846283 
	C371.606537,380.366547 371.324402,379.886841 371.042297,379.407135 
	C370.686646,379.830994 370.330994,380.254822 369.056946,380.840759 
	C364.298798,380.840759 359.540680,380.840759 354.160370,380.840759 
	C354.160370,398.486633 354.160370,415.553772 354.026031,433.407318 
	C354.018311,433.939026 354.010590,434.470734 353.717407,435.107544 
	C353.810760,435.070709 353.904144,435.033875 354.623444,434.939240 
M379.162994,401.942627 
	C378.969330,401.661102 378.775635,401.379578 378.581970,401.098053 
	C378.762238,401.603455 378.942505,402.108856 379.646454,402.403076 
	C380.033966,402.960907 380.421509,403.518707 380.448975,404.926605 
	C380.010223,418.132233 386.078705,427.461487 398.914673,433.066162 
	C399.677277,433.135651 400.439850,433.205139 401.875763,433.540375 
	C402.593903,433.615936 403.312042,433.691498 404.544434,434.160004 
	C406.017548,434.031372 407.490692,433.902710 409.736328,433.803375 
	C414.212280,431.936523 418.688202,430.069672 423.850464,428.113708 
	C427.024017,425.637787 430.125885,423.112000 430.104950,418.250183 
	C427.247467,420.976288 424.389984,423.702393 420.731903,426.686981 
	C415.355591,428.290680 411.092682,426.205750 407.240509,422.661407 
	C400.142334,416.130524 395.862335,407.842499 392.548096,398.495483 
	C392.326721,398.010773 392.105347,397.526093 391.978638,396.266968 
	C391.788666,395.518616 391.598694,394.770264 391.636353,393.337616 
	C391.519836,392.884247 391.403320,392.430908 391.580231,391.274139 
	C391.621399,390.519073 391.662567,389.764038 392.107971,388.348907 
	C394.546753,384.540161 397.482697,384.841248 400.354553,387.636139 
	C402.963715,390.175354 405.175934,393.119751 407.756195,395.691895 
	C412.748932,400.668915 418.937836,401.528931 423.956787,398.139893 
	C428.951202,394.767456 431.158813,387.134430 428.895325,381.064728 
	C424.455627,387.194336 423.791229,387.354767 417.793304,384.072845 
	C416.200043,383.201050 414.548157,382.405151 412.854095,381.754211 
	C404.156372,378.412109 393.533234,381.548401 388.266968,388.764404 
	C388.266968,388.764404 388.000610,389.013733 387.377808,388.986298 
	C386.940735,389.665039 386.503693,390.343811 385.473389,391.333038 
	C384.526520,393.292603 383.579681,395.252167 382.060059,397.802338 
	C381.111145,399.392456 380.162231,400.982544 379.162994,401.942627 
M377.996765,283.269318 
	C378.039581,282.549133 378.082397,281.828979 378.898956,281.054352 
	C379.932983,281.032867 380.967041,281.011383 382.076355,281.681610 
	C382.712921,282.400543 383.349487,283.119446 383.986053,283.838379 
	C384.349976,283.652222 384.713867,283.466095 385.077759,283.279938 
	C384.714600,281.852966 384.351440,280.425964 384.083740,278.225433 
	C384.720856,274.351013 385.877625,270.480835 385.909119,266.601501 
	C386.087067,244.680252 385.995117,222.756821 385.995117,200.491257 
	C379.371979,202.127640 375.386200,198.852859 376.281982,192.873505 
	C370.718384,193.259354 365.361023,193.630905 359.204865,193.903381 
	C353.467285,193.717438 350.908234,191.400696 352.901855,185.323029 
	C353.529755,183.408875 352.996704,181.113892 352.935394,178.409546 
	C352.289856,178.272827 351.644318,178.136108 350.242096,177.912811 
	C347.825623,177.944183 345.409149,177.975571 342.322296,177.711288 
	C340.547089,177.141373 338.771881,176.571457 336.998932,175.132431 
	C337.757080,172.332794 334.933105,168.213501 340.176849,167.336960 
	C340.454071,167.224426 340.731323,167.111893 341.989838,166.757126 
	C342.294617,166.613541 342.599365,166.469955 343.558990,166.406738 
	C347.045441,168.512238 350.531891,170.617737 354.011475,173.490845 
	C354.132050,176.980743 356.105011,175.217575 358.281891,174.800583 
	C365.563568,179.098236 372.845245,183.395874 379.996002,188.371277 
	C379.469452,189.319046 378.942902,190.266830 378.416382,191.214600 
	C378.839691,191.532639 379.263031,191.850662 379.686340,192.168701 
	C380.474060,191.057663 381.261749,189.946625 382.753174,188.920914 
	C384.335541,189.840637 385.839050,190.949585 387.513794,191.647583 
	C395.115234,194.815765 398.142090,200.357864 397.646637,208.600281 
	C397.147766,216.900024 397.436035,225.254059 397.560547,233.581589 
	C397.630310,238.246826 399.097687,239.045868 403.052399,236.852112 
	C406.544434,234.915039 410.224518,233.183487 413.330414,230.737564 
	C414.991425,229.429489 416.484924,226.835449 416.558411,224.768585 
	C416.895691,215.284698 416.389252,205.768112 416.807434,196.290680 
	C417.121033,189.182663 414.073608,184.827072 408.133179,181.442291 
	C382.543671,166.861725 356.986755,152.219452 331.603912,137.283676 
	C325.289581,133.568207 319.866608,133.304565 313.505066,137.049057 
	C287.262970,152.495636 260.884186,167.711380 234.471268,182.864899 
	C230.050552,185.401138 228.095718,188.795715 228.104874,193.788712 
	C228.162354,225.108521 228.193634,256.428680 228.079788,287.748138 
	C228.059937,293.210602 230.303329,296.945557 234.882126,299.577087 
	C262.004852,315.165039 289.134583,330.740875 316.223999,346.386536 
	C320.543671,348.881378 324.517334,348.920868 328.879974,346.352661 
	C341.788757,338.753479 354.815704,331.354706 367.806824,323.895691 
	C381.520355,316.021942 395.240662,308.160004 408.969116,300.312317 
	C413.238800,297.871582 416.559906,294.638977 416.618774,289.428406 
	C416.765533,276.436279 416.742676,263.441193 416.656677,250.448120 
	C416.634491,247.099533 414.810425,245.882645 411.699493,247.546249 
	C408.324524,249.351105 405.089661,251.425385 401.674500,253.145584 
	C398.663086,254.662415 397.331573,256.700470 397.487335,260.228699 
	C397.751495,266.212036 397.974548,272.275330 397.266998,278.191681 
	C396.891266,281.333588 395.311707,285.393829 392.907593,287.031860 
	C385.658936,291.970734 377.740051,295.925812 370.044769,299.630219 
	C370.029816,299.418915 370.014893,299.207611 369.922302,298.266235 
	C369.614471,296.843353 369.306641,295.420441 369.001709,293.198914 
	C370.117981,291.832428 371.227875,289.314453 372.351715,289.308197 
	C376.240265,289.286530 377.645508,287.392151 377.996765,283.269318 
M221.078339,389.335205 
	C216.030060,399.013306 221.224945,408.097412 232.759232,412.768158 
	C221.701721,416.502991 216.649872,424.894958 220.428467,433.251678 
	C224.727448,426.692108 224.720947,426.704346 232.273590,430.715118 
	C233.738541,431.493042 235.239273,432.230713 236.786499,432.822144 
	C244.417816,435.739197 252.392120,433.074341 257.781799,425.675018 
	C263.262421,414.428436 257.860657,405.075684 244.285583,401.238525 
	C256.141815,397.793884 261.596771,389.475525 257.530090,381.041718 
	C253.594925,387.293152 252.781647,387.495850 246.577896,383.821472 
	C245.578247,383.229370 244.571747,382.638397 243.524811,382.138153 
	C235.386261,378.249573 226.422791,381.004425 221.078339,389.335205 
M345.183777,400.090881 
	C345.248352,397.404999 345.312927,394.719116 346.111755,391.996857 
	C349.466187,389.277771 348.975616,386.960571 345.180450,384.092896 
	C344.375061,383.007935 343.688354,381.100098 342.746094,380.964203 
	C332.324890,379.461395 326.414795,383.392120 323.214020,393.473450 
	C322.301880,396.346375 321.100128,399.127289 319.679993,402.877899 
	C313.327515,382.344391 308.631561,378.439026 295.165588,381.542419 
	C295.165588,383.701233 295.165588,385.848206 294.955414,388.912445 
	C294.955414,403.645142 294.955414,418.377838 294.955414,433.255432 
	C300.937378,433.255432 306.317719,433.255432 311.712646,433.255432 
	C312.686829,426.445282 310.022125,421.360382 306.081665,416.529236 
	C302.809875,412.517822 299.197205,408.465454 300.947998,402.380615 
	C307.775238,408.472198 314.602478,414.563782 320.611969,419.925751 
	C321.967346,418.258759 323.758301,414.670929 326.657257,412.799011 
	C331.624756,409.591370 336.224884,406.264954 339.748962,401.684631 
	C339.881775,401.835022 340.014587,401.985443 340.098999,402.930695 
	C337.823120,407.830078 336.044830,413.051758 333.136780,417.541656 
	C329.989136,422.401459 327.350342,427.045410 328.487579,433.273804 
	C331.422699,433.476257 334.194366,433.667419 337.010925,434.660156 
	C338.518433,435.409546 340.766785,437.183502 341.400879,436.724976 
	C343.728851,435.041718 348.122040,435.688507 348.034363,430.987183 
	C347.873413,422.355194 348.105530,413.714874 347.873322,405.086121 
	C347.835815,403.691895 346.247467,402.339417 345.183777,400.090881 
M285.941589,389.551880 
	C285.941589,386.777069 285.941589,384.002228 285.941589,381.214691 
	C279.910187,381.214691 274.532104,381.214691 269.132629,381.214691 
	C269.132629,398.711273 269.132629,415.833466 269.132629,433.257507 
	C274.703918,433.257507 280.105560,433.257507 285.941650,433.257507 
	C285.941650,418.795563 285.941650,404.668213 285.941589,389.551880 
M360.482758,437.584900 
	C360.482758,437.584900 360.418060,437.475159 360.482758,437.584900 
M377.588135,291.517365 
	C377.588135,291.517365 377.476929,291.583984 377.588135,291.517365 
z"/>
<path fill="#F8F8F8" opacity="1.000000" stroke="none" 
	d="
M370.082520,300.264526 
	C377.740051,295.925812 385.658936,291.970734 392.907593,287.031860 
	C395.311707,285.393829 396.891266,281.333588 397.266998,278.191681 
	C397.974548,272.275330 397.751495,266.212036 397.487335,260.228699 
	C397.331573,256.700470 398.663086,254.662415 401.674500,253.145584 
	C405.089661,251.425385 408.324524,249.351105 411.699493,247.546249 
	C414.810425,245.882645 416.634491,247.099533 416.656677,250.448120 
	C416.742676,263.441193 416.765533,276.436279 416.618774,289.428406 
	C416.559906,294.638977 413.238800,297.871582 408.969116,300.312317 
	C395.240662,308.160004 381.520355,316.021942 367.806824,323.895691 
	C354.815704,331.354706 341.788757,338.753479 328.879974,346.352661 
	C324.517334,348.920868 320.543671,348.881378 316.223999,346.386536 
	C289.134583,330.740875 262.004852,315.165039 234.882126,299.577087 
	C230.303329,296.945557 228.059937,293.210602 228.079788,287.748138 
	C228.193634,256.428680 228.162354,225.108521 228.104874,193.788712 
	C228.095718,188.795715 230.050552,185.401138 234.471268,182.864899 
	C260.884186,167.711380 287.262970,152.495636 313.505066,137.049057 
	C319.866608,133.304565 325.289581,133.568207 331.603912,137.283676 
	C356.986755,152.219452 382.543671,166.861725 408.133179,181.442291 
	C414.073608,184.827072 417.121033,189.182663 416.807434,196.290680 
	C416.389252,205.768112 416.895691,215.284698 416.558411,224.768585 
	C416.484924,226.835449 414.991425,229.429489 413.330414,230.737564 
	C410.224518,233.183487 406.544434,234.915039 403.052399,236.852112 
	C399.097687,239.045868 397.630310,238.246826 397.560547,233.581589 
	C397.436035,225.254059 397.147766,216.900024 397.646637,208.600281 
	C398.142090,200.357864 395.115234,194.815765 387.513794,191.647583 
	C385.839050,190.949585 384.335541,189.840637 382.255127,188.619965 
	C381.213715,188.110519 380.670319,187.902023 380.126923,187.693512 
	C372.845245,183.395874 365.563568,179.098236 357.743896,174.492386 
	C356.143402,173.697205 355.080872,173.210220 354.018341,172.723236 
	C350.531891,170.617737 347.045441,168.512238 343.025818,166.076019 
	C337.902893,163.061188 333.422607,160.160156 328.684509,157.770233 
	C325.594543,156.211639 322.159729,153.905029 318.703247,157.507141 
	C318.637634,157.519135 318.520081,157.582230 318.211243,157.306381 
	C312.549866,160.008530 307.153564,162.910889 301.853058,165.978775 
	C286.159302,175.062225 270.503326,184.210999 254.493805,193.443451 
	C253.248871,194.282318 252.342682,195.011993 251.123672,195.797180 
	C250.120636,196.869598 249.430405,197.886490 248.437454,199.146332 
	C247.744659,201.656555 247.023560,203.922653 247.015549,206.191269 
	C246.933350,229.442047 246.924118,252.693436 247.032578,275.944000 
	C247.043701,278.329010 247.952118,280.709778 248.481598,283.415009 
	C248.950867,284.184509 249.382675,284.631561 249.916077,285.416565 
	C253.284485,287.704468 256.551331,289.654327 260.002502,291.870422 
	C262.370026,293.322357 264.553162,294.507996 266.952301,295.928589 
	C269.090973,297.175446 271.013611,298.187347 273.089722,299.453552 
	C273.793030,299.896118 274.342896,300.084351 275.057098,300.544983 
	C276.715851,301.582947 278.210266,302.348480 279.877777,303.394287 
	C281.034180,304.107056 282.017517,304.539520 283.197754,305.259399 
	C294.386749,311.901703 305.259644,318.480072 316.457794,324.448181 
	C319.126892,325.870728 322.882385,325.254913 326.439148,325.584259 
	C327.220703,325.245972 327.701294,324.900116 328.543304,324.488434 
	C340.968994,317.357605 353.033234,310.292603 365.428284,303.183105 
	C367.200195,302.180542 368.641357,301.222534 370.082520,300.264526 
z"/>
<path fill="#020102" opacity="1.000000" stroke="none" 
	d="
M365.097504,303.227600 
	C353.033234,310.292603 340.968994,317.357605 328.389160,324.170868 
	C327.295135,324.471649 326.716675,325.024139 326.138184,325.576660 
	C322.882385,325.254913 319.126892,325.870728 316.457794,324.448181 
	C305.259644,318.480072 294.386749,311.901703 283.134583,304.896393 
	C281.817871,303.868622 280.761261,303.491302 279.704681,303.113983 
	C278.210266,302.348480 276.715851,301.582947 275.072144,300.217896 
	C274.536957,298.980194 274.151062,298.342041 273.765198,297.703888 
	C273.488892,298.202332 273.212585,298.700775 272.936279,299.199219 
	C271.013611,298.187347 269.090973,297.175446 266.970093,295.597778 
	C265.654816,290.960388 263.432251,289.864777 259.818146,291.604187 
	C256.551331,289.654327 253.284485,287.704468 250.182373,285.223816 
	C249.712769,284.159576 249.078476,283.626038 248.444168,283.092529 
	C247.952118,280.709778 247.043701,278.329010 247.032578,275.944000 
	C246.924118,252.693436 246.933350,229.442047 247.015549,206.191269 
	C247.023560,203.922653 247.744659,201.656555 248.849792,199.172272 
	C250.588089,198.653778 251.611328,198.352325 252.634552,198.050873 
	C252.235199,197.281143 251.835846,196.511414 251.436478,195.741669 
	C252.342682,195.011993 253.248871,194.282318 254.552704,193.872528 
	C256.378571,197.686935 257.806824,201.181473 259.235077,204.675995 
	C260.095093,205.086945 259.345245,205.742447 258.840637,206.551010 
	C258.207672,207.565231 257.775757,208.704926 257.257080,209.790466 
	C258.584320,210.173706 259.933868,210.907196 261.231445,210.824539 
	C262.193024,210.763290 263.086945,209.641068 264.382294,208.994263 
	C265.496704,209.001038 266.239807,209.005005 266.991455,209.004181 
	C267.000000,208.999390 266.990570,209.016785 266.992737,209.391052 
	C268.179413,211.180573 269.104431,213.024323 270.598206,213.928818 
	C274.684296,216.403015 279.031738,218.441528 283.235504,220.726471 
	C289.246490,223.993774 293.762360,230.180771 300.598267,231.435211 
	C306.430481,232.505447 308.514557,239.501846 314.775574,239.104004 
	C314.813843,239.101578 314.930756,240.336670 314.542847,240.995941 
	C307.632355,241.332138 301.191223,241.879044 294.746918,241.920013 
	C290.928680,241.944305 289.686188,243.538101 289.977173,247.060135 
	C290.113647,248.711868 290.125488,250.395584 289.974854,252.044815 
	C289.658203,255.511810 291.414795,256.746155 294.611572,257.040955 
	C297.661865,257.322266 300.676056,257.994965 303.312073,258.430481 
	C303.935822,262.097412 304.903900,265.229584 304.896057,268.359314 
	C304.885101,272.746735 307.151520,273.133728 310.650116,272.952148 
	C315.303802,272.710693 319.979431,272.892578 324.402283,272.892578 
	C324.923035,275.485840 325.247650,277.102264 325.572266,278.718689 
	C326.024902,278.725464 326.477509,278.732269 326.930145,278.739044 
	C327.550568,276.873138 328.171021,275.007233 328.790924,273.142914 
	C337.716888,276.339874 345.581482,273.169983 345.561249,268.641235 
	C348.705902,265.833313 350.857208,263.912384 353.305481,261.954468 
	C353.919281,261.512329 354.236115,261.107147 354.552917,260.701965 
	C354.037720,260.470886 353.522522,260.239838 353.004822,259.540222 
	C353.001556,255.094345 353.009674,251.116989 352.997986,247.139709 
	C352.979553,240.888229 352.310638,240.456375 346.217682,240.884445 
	C342.451324,241.149063 338.635590,240.797333 334.846802,240.619949 
	C332.894501,240.528534 330.952667,240.213409 328.753967,239.999405 
	C328.333740,239.999207 328.165649,239.998993 327.998779,239.999390 
	C328.000000,240.000000 328.000671,240.002350 328.114319,239.733215 
	C328.463898,238.933426 328.699799,238.402786 328.954681,237.911392 
	C328.973633,237.950638 328.888062,237.934067 329.119995,237.878693 
	C329.652954,237.678055 329.863556,237.449524 330.149323,237.020615 
	C330.314850,236.903519 330.719604,236.878082 331.118164,236.919449 
	C333.145660,237.404785 334.774597,237.848770 337.018066,238.460236 
	C337.018066,236.618134 337.018066,234.901230 337.183167,233.054886 
	C337.348267,232.925446 337.762573,232.862488 338.162903,232.903656 
	C341.208466,232.749283 343.853729,232.553741 346.296692,232.373138 
	C345.789734,231.148895 345.315277,230.003098 344.848938,228.872986 
	C344.857056,228.888672 344.871582,228.890900 345.256104,228.926468 
	C347.053650,227.883667 348.466705,226.805313 350.041077,225.519058 
	C350.699280,225.167618 351.196136,225.024063 351.972351,224.837418 
	C352.490906,224.518921 352.730072,224.243515 352.985229,223.981873 
	C353.001221,223.995636 352.973450,223.960602 353.359558,223.983109 
	C355.260712,224.279968 356.775757,224.554321 358.446472,224.856873 
	C359.064819,223.094116 359.589264,221.599106 360.502991,220.091476 
	C361.593903,221.110092 362.359863,222.104309 362.980225,223.182312 
	C363.690826,224.417145 364.272217,225.726349 364.990662,227.465790 
	C365.169189,236.941299 365.266846,245.954254 365.238647,255.292389 
	C365.023102,256.073364 364.933441,256.529144 364.479736,257.079468 
	C362.364227,261.063202 360.612732,264.952423 358.462830,268.889954 
	C356.775482,269.791656 355.486511,270.645111 354.121643,271.649109 
	C354.045715,271.799652 353.757233,271.974274 353.495483,271.997192 
	C352.826965,272.320129 352.420166,272.620178 351.782227,273.029205 
	C351.223236,273.219025 350.895386,273.299866 350.179382,273.284790 
	C348.190613,274.441559 346.590057,275.694275 344.991455,276.977173 
	C344.993408,277.007385 344.934814,276.992157 344.763184,277.048157 
	C344.368622,277.210754 344.196167,277.371490 343.826477,277.733826 
	C343.393097,277.930786 343.207428,277.980286 342.715454,278.034668 
	C341.955475,278.391052 341.501831,278.742584 341.053162,279.066223 
	C341.058167,279.038361 341.062469,279.103516 340.784088,278.946533 
	C339.650757,278.283997 338.795837,277.778412 337.692688,277.126038 
	C337.820068,278.741394 337.907074,279.845032 337.844666,281.046875 
	C337.695190,281.145020 337.343323,281.208771 336.929382,281.151215 
	C334.701141,281.696350 332.887421,282.300720 331.072449,282.901306 
	C329.092377,283.556519 326.347870,285.377380 325.257996,284.665894 
	C319.503601,280.909485 312.499634,284.531982 306.647217,281.037445 
	C306.424042,281.008667 306.023254,280.803833 306.015747,280.407013 
	C305.775970,275.053497 302.064819,277.609375 299.551575,277.087708 
	C299.338776,277.056610 298.985168,276.811737 298.931885,276.681366 
	C298.683197,276.296021 298.445068,276.251282 297.911072,276.479736 
	C297.490692,276.590424 297.323456,276.638153 297.140625,276.743469 
	C297.125031,276.801056 297.237335,276.760773 297.159088,276.479736 
	C296.350769,275.558075 295.620697,274.917450 294.895325,273.890472 
	C293.860413,269.684235 292.088226,267.405792 287.585327,270.120239 
	C286.491852,269.608643 285.726013,269.160156 284.855713,268.547058 
	C284.568756,268.183258 284.345337,268.055908 283.837463,267.933533 
	C283.375732,267.618561 283.157501,267.370453 282.923309,266.782959 
	C282.245056,265.984924 281.582825,265.526276 280.933167,265.061279 
	C280.945740,265.054901 280.934296,265.051971 280.962555,264.619629 
	C280.673492,261.795471 280.356201,259.403656 279.961792,256.547607 
	C279.887146,248.736557 279.889618,241.389786 280.171722,233.844833 
	C279.877472,232.850616 279.303558,232.054550 278.876740,231.169708 
	C279.023804,231.080917 278.738068,231.274506 278.795898,230.930084 
	C277.902069,229.390182 276.950439,228.194717 276.341309,226.992737 
	C277.295074,226.663025 277.906342,226.339813 278.517609,226.016586 
	C278.221130,225.735367 277.924622,225.454147 277.628143,225.172913 
	C277.085846,225.782196 276.543518,226.391479 275.625214,226.958862 
	C272.753754,226.318283 270.258331,225.719604 267.430054,225.079620 
	C266.438965,224.945618 265.780670,224.852921 265.140076,224.813614 
	C265.157745,224.866989 265.237640,224.787811 265.209351,224.517914 
	C265.142578,224.070480 265.104126,223.892929 265.035339,223.350555 
	C263.670441,222.324203 262.335815,221.662720 260.996216,220.630615 
	C260.097443,218.582397 259.203674,216.904785 258.309906,215.227173 
	C257.647644,215.536026 256.985382,215.844879 256.323151,216.153732 
	C257.216187,218.436035 258.109253,220.718323 259.001190,223.333893 
	C258.998047,224.111557 258.995972,224.555939 258.634521,225.068237 
	C256.539032,227.051620 255.914612,228.801666 258.994385,230.375519 
	C258.329102,232.831757 257.668213,234.912430 257.004730,237.462433 
	C257.001862,247.843597 256.920746,257.756775 257.090088,267.665680 
	C257.114960,269.120483 258.329681,270.554993 258.992310,272.331879 
	C258.982574,273.108856 258.974457,273.552795 258.671143,274.038330 
	C258.065826,274.489563 257.755676,274.899261 257.445496,275.308929 
	C257.962036,275.539276 258.478577,275.769653 258.997314,276.333069 
	C259.001709,277.110199 259.003906,277.554260 258.670868,278.051819 
	C257.918365,280.465179 257.501068,282.825073 257.036255,285.453888 
	C259.655304,285.963287 261.958466,286.411255 263.900024,286.788910 
	C265.115143,284.921448 266.060028,283.469299 267.315277,281.995972 
	C267.830475,281.942322 268.035309,281.909851 268.460785,281.928040 
	C268.681427,281.978699 269.039581,282.255737 269.160126,282.433044 
	C269.497528,282.820007 269.756653,282.931366 270.038391,282.948975 
	C270.018677,282.953491 270.064026,282.930237 270.091797,283.290070 
	C271.117157,284.063202 272.114746,284.476501 273.054901,284.941650 
	C272.997498,284.993469 273.109192,284.884125 273.072266,285.309692 
	C273.159851,291.122437 277.083618,288.375702 279.800476,288.745361 
	C280.380127,288.855835 280.698181,288.994019 281.139954,289.333221 
	C281.490967,289.779358 281.771637,289.908569 282.065552,289.906311 
	C282.025360,289.890717 282.109924,289.873779 282.075989,290.253296 
	C284.331482,295.828339 289.526398,295.705475 293.984253,297.433105 
	C297.240570,299.427338 300.402161,301.093689 303.683105,302.687958 
	C303.802521,302.615875 304.046326,302.751465 304.061554,303.136688 
	C306.884491,307.075531 310.172974,309.647736 315.058777,308.901245 
	C315.036011,308.889648 315.089966,308.886963 315.097534,309.267242 
	C316.621307,310.745544 318.068939,312.633698 319.668365,312.772522 
	C322.732208,313.038391 325.882324,312.310272 329.229462,312.265991 
	C331.396027,312.137970 333.378510,311.871216 335.211853,311.198151 
	C335.491791,311.095337 335.081909,309.113617 335.175598,307.732880 
	C335.865295,306.587158 336.370514,305.709473 336.938324,304.861511 
	C337.000916,304.891205 336.863708,304.872192 337.266022,304.916626 
	C341.116791,303.309143 344.565247,301.657257 348.332886,300.143646 
	C349.918091,300.280182 351.184082,300.278412 352.450104,300.276642 
	C351.963348,299.849457 351.476593,299.422302 351.132629,298.702881 
	C351.854767,297.285583 352.434143,296.160461 353.181946,294.791626 
	C353.903015,294.374420 354.455627,294.200897 355.239380,294.297974 
	C356.646606,294.709930 357.822723,294.851349 359.343597,295.144836 
	C362.367249,295.818268 366.265045,297.927795 363.991943,291.609283 
	C363.975433,290.451233 363.957245,289.678986 363.947968,288.921295 
	C363.956879,288.935852 363.915802,288.913818 364.323151,288.946899 
	C365.820343,288.986267 366.910156,288.992523 367.963074,289.355042 
	C368.283691,291.140045 368.641235,292.568817 368.998779,293.997559 
	C369.306641,295.420441 369.614471,296.843353 369.575958,298.640625 
	C366.710144,299.298920 364.650757,300.034149 365.097504,303.227600 
M278.695068,221.077164 
	C278.432465,221.590042 278.169830,222.102921 277.907227,222.615799 
	C278.654205,222.612106 279.401154,222.608414 280.148132,222.604721 
	C279.880096,222.094315 279.612091,221.583893 278.695068,221.077164 
M354.509216,303.142700 
	C354.206329,303.569366 353.903473,303.996033 353.600586,304.422699 
	C354.048767,304.536377 354.496918,304.650055 354.945099,304.763763 
	C354.998749,304.264313 355.052399,303.764862 354.509216,303.142700 
M356.722473,265.116882 
	C356.530823,264.574402 356.339203,264.031891 356.147583,263.489410 
	C355.869659,263.616577 355.591705,263.743744 355.313782,263.870911 
	C355.638702,264.429291 355.963623,264.987640 356.722473,265.116882 
M289.263611,230.166656 
	C289.670502,230.220444 290.077362,230.274231 290.484253,230.328003 
	C290.289185,229.805740 290.094116,229.283478 289.899048,228.761230 
	C289.636536,229.052078 289.374054,229.342926 289.263611,230.166656 
M344.680206,304.447662 
	C345.248810,304.467621 345.818420,304.504395 346.383728,304.470062 
	C346.421814,304.467743 346.427277,303.928528 346.447906,303.638977 
	C345.900482,303.733826 345.353058,303.828674 344.680206,304.447662 
M305.395569,310.200653 
	C305.787506,310.204926 306.179413,310.209167 306.571350,310.213409 
	C306.572876,310.050751 306.585358,309.746735 306.574402,309.745880 
	C306.184448,309.715729 305.792267,309.713989 305.395569,310.200653 
M351.705200,238.565323 
	C351.989410,238.294006 352.276276,238.025116 352.542816,237.737442 
	C352.549591,237.730087 352.333008,237.515839 352.220581,237.398102 
	C351.936340,237.669785 351.652100,237.941452 351.705200,238.565323 
M305.798553,237.392899 
	C305.794373,237.785980 305.790192,238.179047 305.786011,238.572144 
	C305.949127,238.573700 306.253998,238.586182 306.254852,238.575211 
	C306.285034,238.184052 306.286743,237.790695 305.798553,237.392899 
M351.797882,233.392242 
	C351.793671,233.786011 351.789459,234.179794 351.785248,234.573563 
	C351.948639,234.575119 352.254028,234.587631 352.254883,234.576660 
	C352.285065,234.184677 352.286835,233.790512 351.797882,233.392242 
M312.516815,319.406433 
	C312.516815,319.406433 312.588104,319.523468 312.516815,319.406433 
M340.587372,314.517181 
	C340.587372,314.517181 340.475922,314.583344 340.587372,314.517181 
M292.410614,307.482574 
	C292.410614,307.482574 292.522827,307.415955 292.410614,307.482574 
z"/>
<path fill="#DEE3E3" opacity="1.000000" stroke="none" 
	d="
M295.165588,387.995178 
	C295.165588,385.848206 295.165588,383.701233 295.165588,381.542419 
	C308.631561,378.439026 313.327515,382.344391 319.679993,402.877899 
	C321.100128,399.127289 322.301880,396.346375 323.214020,393.473450 
	C326.414795,383.392120 332.324890,379.461395 342.746094,380.964203 
	C343.688354,381.100098 344.375061,383.007935 345.162994,384.960815 
	C345.222839,387.896881 345.300171,389.965057 345.377502,392.033234 
	C345.312927,394.719116 345.248352,397.404999 345.160217,400.986481 
	C345.136658,412.254639 345.136658,422.627197 345.136658,433.169464 
	C342.131073,433.422974 339.548553,433.640778 336.966003,433.858582 
	C334.194366,433.667419 331.422699,433.476257 328.487579,433.273804 
	C327.350342,427.045410 329.989136,422.401459 333.136780,417.541656 
	C336.044830,413.051758 337.823120,407.830078 340.423157,402.428101 
	C340.753845,401.341522 340.760376,400.757599 340.766937,400.173645 
	C340.307892,400.516296 339.848816,400.858948 339.389740,401.201599 
	C336.224884,406.264954 331.624756,409.591370 326.657257,412.799011 
	C323.758301,414.670929 321.967346,418.258759 320.611969,419.925751 
	C314.602478,414.563782 307.775238,408.472198 300.505249,402.517334 
	C300.062500,402.654053 300.041779,402.512390 300.548706,402.549622 
	C299.985718,398.181671 298.915771,393.776489 297.747620,389.050964 
	C296.821472,388.485504 295.993530,388.240326 295.165588,387.995178 
z"/>
<path fill="#040505" opacity="1.000000" stroke="none" 
	d="
M264.010986,208.991455 
	C263.086945,209.641068 262.193024,210.763290 261.231445,210.824539 
	C259.933868,210.907196 258.584320,210.173706 257.257080,209.790466 
	C257.775757,208.704926 258.207672,207.565231 258.840637,206.551010 
	C259.345245,205.742447 260.095093,205.086945 259.235077,204.675995 
	C257.806824,201.181473 256.378571,197.686935 254.891449,193.763321 
	C270.503326,184.210999 286.159302,175.062225 301.853058,165.978775 
	C307.153564,162.910889 312.549866,160.008530 318.491394,157.440369 
	C319.207214,157.924622 319.333954,157.999023 319.460724,158.073425 
	C319.230103,157.880661 318.999512,157.687912 318.768890,157.495148 
	C322.159729,153.905029 325.594543,156.211639 328.684509,157.770233 
	C333.422607,160.160156 337.902893,163.061188 342.698364,166.035828 
	C342.599365,166.469955 342.294617,166.613541 341.245789,166.879456 
	C340.332855,167.000977 340.163971,167.000183 339.995117,166.999390 
	C334.933105,168.213501 337.757080,172.332794 336.690918,175.415604 
	C335.764862,175.154663 335.178925,174.568008 334.523834,174.072861 
	C325.515289,167.263718 314.305573,168.591370 309.052917,177.057663 
	C309.043671,177.039078 309.068939,177.051788 308.676453,177.029510 
	C307.255096,177.758759 306.226196,178.510284 305.132843,179.245438 
	C305.068359,179.229065 305.198242,179.200165 304.799133,179.134216 
	C301.295654,181.091064 298.191284,183.113876 295.046570,185.095917 
	C295.006287,185.055145 295.114441,185.093216 294.719727,185.060257 
	C293.245117,185.748795 292.165222,186.470291 290.949524,187.443680 
	C290.267334,187.823395 289.720978,187.951202 288.753418,188.054306 
	C286.931152,188.795776 285.530060,189.561951 284.125671,190.506866 
	C284.122406,190.685623 283.946289,190.996780 283.572571,191.003296 
	C279.192719,191.088867 276.464203,196.848862 272.083496,193.808289 
	C271.462311,194.896057 271.113098,196.446030 270.181000,196.981827 
	C265.457184,199.697037 263.361145,203.596710 264.010986,208.991455 
z"/>
<path fill="#E0E3E4" opacity="1.000000" stroke="none" 
	d="
M354.160370,432.620880 
	C354.160370,415.553772 354.160370,398.486633 354.160370,380.840759 
	C359.540680,380.840759 364.298798,380.840759 369.822632,380.890991 
	C370.993988,381.119019 371.399658,381.296814 371.805359,381.474609 
	C371.678497,382.092041 371.551636,382.709473 371.426758,384.009369 
	C371.409210,399.309662 371.421417,413.927704 371.328400,428.545044 
	C371.317261,430.292084 370.733582,432.035492 370.415283,433.780579 
	C370.090424,433.735046 369.765533,433.689514 368.788879,433.615417 
	C365.762848,433.678833 363.388611,433.770874 361.014343,433.862915 
	C359.626953,433.786041 358.239594,433.709167 356.230743,433.563354 
	C355.126312,433.203217 354.643341,432.912048 354.160370,432.620880 
z"/>
<path fill="#E0E4E5" opacity="1.000000" stroke="none" 
	d="
M285.941620,390.046356 
	C285.941650,404.668213 285.941650,418.795563 285.941650,433.257507 
	C280.105560,433.257507 274.703918,433.257507 269.132629,433.257507 
	C269.132629,415.833466 269.132629,398.711273 269.132629,381.214691 
	C274.532104,381.214691 279.910187,381.214691 285.941589,381.214691 
	C285.941589,384.002228 285.941589,386.777069 285.941620,390.046356 
z"/>
<path fill="#040505" opacity="1.000000" stroke="none" 
	d="
M342.992676,178.006943 
	C345.409149,177.975571 347.825623,177.944183 350.787720,178.200592 
	C351.887238,178.656647 352.441132,178.824936 352.994995,178.993225 
	C352.996704,181.113892 353.529755,183.408875 352.901855,185.323029 
	C350.908234,191.400696 353.467285,193.717438 359.461273,194.248108 
	C358.809540,196.042206 357.901428,197.491562 356.874603,199.056976 
	C356.755890,199.173004 356.424225,199.162720 356.028442,199.116837 
	C354.771423,199.742630 353.910187,200.414307 353.026733,201.048706 
	C353.004517,201.011414 353.078125,201.057358 352.686279,201.033676 
	C350.198425,202.374924 348.102448,203.739853 345.902466,205.194305 
	C345.798462,205.283829 345.538391,205.196091 345.160217,205.163757 
	C344.188995,205.777054 343.595947,206.422684 342.903320,207.166534 
	C342.803772,207.264755 342.534363,207.189621 342.124359,207.154556 
	C337.164581,209.265396 332.531464,211.253677 328.089142,213.602768 
	C323.890411,215.823044 320.172607,216.784683 315.746124,213.631378 
	C312.783417,211.520844 310.257904,207.448471 305.338501,209.191681 
	C305.192871,209.202362 305.001007,208.982208 305.002808,208.574707 
	C305.669739,205.778015 306.334869,203.388809 307.120300,200.897797 
	C307.240570,200.795990 307.553864,200.830307 307.962769,200.879211 
	C309.300598,200.697693 310.378021,200.694885 311.135254,200.201096 
	C317.747498,195.889542 324.387878,193.961761 331.261749,200.011734 
	C331.975433,198.818726 332.471008,197.990311 333.199890,197.039337 
	C333.778137,196.879730 334.123077,196.842712 334.880280,196.860229 
	C337.178162,195.586670 339.063782,194.258575 340.977905,192.959137 
	C341.006470,192.987778 340.938721,192.945541 341.325195,192.967865 
	C343.137177,191.989182 344.562714,190.988159 345.994141,189.993561 
	C346.000000,190.000000 345.988983,189.987610 346.376129,189.996185 
	C348.097565,189.102020 350.061737,188.450119 350.554688,187.212326 
	C350.909821,186.320526 349.612854,184.212555 348.501495,183.427429 
	C346.885468,182.285797 344.773071,181.846817 342.873138,181.124222 
	C342.873932,181.140228 342.844879,181.162125 342.890320,180.769470 
	C342.954712,179.586853 342.973694,178.796906 342.992676,178.006943 
z"/>
<path fill="#DEE4E4" opacity="1.000000" stroke="none" 
	d="
M382.632843,397.211700 
	C383.579681,395.252167 384.526520,393.292603 386.085083,391.134888 
	C387.131378,390.295746 387.565979,389.654724 388.000610,389.013733 
	C388.000610,389.013733 388.266968,388.764404 388.828033,388.849670 
	C390.160645,388.959595 390.932190,388.984283 391.703735,389.008972 
	C391.662567,389.764038 391.621399,390.519073 391.211212,391.699249 
	C391.031036,392.756866 391.219879,393.389404 391.408722,394.021912 
	C391.598694,394.770264 391.788666,395.518616 391.728485,396.794312 
	C391.793304,397.888763 392.108246,398.455841 392.423218,399.022949 
	C395.862335,407.842499 400.142334,416.130524 407.240509,422.661407 
	C411.092682,426.205750 415.355591,428.290680 421.480835,426.781555 
	C422.541229,427.318329 422.852692,427.760559 423.164154,428.202820 
	C418.688202,430.069672 414.212280,431.936523 409.108978,433.559875 
	C406.997803,433.466614 405.514008,433.616852 404.030182,433.767090 
	C403.312042,433.691498 402.593903,433.615936 401.362549,433.144592 
	C400.062622,432.719299 399.275848,432.689819 398.489105,432.660370 
	C386.078705,427.461487 380.010223,418.132233 380.943909,404.261536 
	C381.836823,401.468201 382.234833,399.339966 382.632843,397.211700 
z"/>
<path fill="#DCE1E1" opacity="1.000000" stroke="none" 
	d="
M244.090347,401.969330 
	C257.860657,405.075684 263.262421,414.428436 257.136780,425.852783 
	C256.035400,426.029938 255.579071,426.029358 255.110611,425.649902 
	C254.172806,423.640228 253.641006,421.397003 252.244217,420.498627 
	C248.704163,418.221710 244.776047,416.548187 240.902023,414.296692 
	C238.162247,413.320221 235.523804,412.680084 232.885345,412.039948 
	C221.224945,408.097412 216.030060,399.013306 221.685059,389.133667 
	C222.755417,388.953705 223.219070,388.975281 223.732330,389.369141 
	C226.425735,396.788666 233.377686,397.521240 239.269440,400.393250 
	C241.031555,401.081512 242.560959,401.525421 244.090347,401.969330 
z"/>
<path fill="#DADEDE" opacity="1.000000" stroke="none" 
	d="
M255.122742,426.028748 
	C255.579071,426.029358 256.035400,426.029938 256.833557,426.048523 
	C252.392120,433.074341 244.417816,435.739197 236.786499,432.822144 
	C235.239273,432.230713 233.738541,431.493042 232.273590,430.715118 
	C224.720947,426.704346 224.727448,426.692108 220.428467,433.251678 
	C216.649872,424.894958 221.701721,416.502991 232.822296,412.404053 
	C235.523804,412.680084 238.162247,413.320221 240.553177,414.415466 
	C239.607178,414.975952 238.908722,415.081268 238.131958,415.198425 
	C241.412582,418.656311 244.493729,421.822632 247.479156,425.076782 
	C249.801880,427.608643 252.211746,428.616302 255.122742,426.028748 
z"/>
<path fill="#D8DCDC" opacity="1.000000" stroke="none" 
	d="
M391.905853,388.678955 
	C390.932190,388.984283 390.160645,388.959595 389.005188,388.893188 
	C393.533234,381.548401 404.156372,378.412109 412.854095,381.754211 
	C414.548157,382.405151 416.200043,383.201050 417.793304,384.072845 
	C423.791229,387.354767 424.455627,387.194336 428.895325,381.064728 
	C431.158813,387.134430 428.951202,394.767456 423.956787,398.139893 
	C418.937836,401.528931 412.748932,400.668915 407.756195,395.691895 
	C405.175934,393.119751 402.963715,390.175354 400.354553,387.636139 
	C397.482697,384.841248 394.546753,384.540161 391.905853,388.678955 
z"/>
<path fill="#DBE0E0" opacity="1.000000" stroke="none" 
	d="
M223.682709,388.996887 
	C223.219070,388.975281 222.755417,388.953705 221.945740,388.893555 
	C226.422791,381.004425 235.386261,378.249573 243.524811,382.138153 
	C244.571747,382.638397 245.578247,383.229370 246.577896,383.821472 
	C252.781647,387.495850 253.594925,387.293152 257.530090,381.041718 
	C261.596771,389.475525 256.141815,397.793884 244.187958,401.603943 
	C242.560959,401.525421 241.031555,401.081512 239.344269,400.020660 
	C235.954559,395.421936 232.929581,391.232330 229.315002,387.635193 
	C228.598709,386.922333 225.618774,388.484070 223.682709,388.996887 
z"/>
<path fill="#D9DEDE" opacity="1.000000" stroke="none" 
	d="
M295.060486,388.453796 
	C295.993530,388.240326 296.821472,388.485504 297.502563,389.311401 
	C298.251038,394.098877 299.146423,398.305634 300.041779,402.512390 
	C300.041779,402.512390 300.062500,402.654053 300.072754,402.618958 
	C299.197205,408.465454 302.809875,412.517822 306.081665,416.529236 
	C310.022125,421.360382 312.686829,426.445282 311.712646,433.255432 
	C306.317719,433.255432 300.937378,433.255432 294.955414,433.255432 
	C294.955414,418.377838 294.955414,403.645142 295.060486,388.453796 
z"/>
<path fill="#061106" opacity="1.000000" stroke="none" 
	d="
M356.993317,198.940933 
	C357.901428,197.491562 358.809540,196.042206 359.860657,194.297638 
	C365.361023,193.630905 370.718384,193.259354 376.281982,192.873505 
	C375.386200,198.852859 379.371979,202.127640 385.995117,200.491257 
	C385.995117,222.756821 386.087067,244.680252 385.909119,266.601501 
	C385.877625,270.480835 384.720856,274.351013 383.771912,278.732574 
	C382.973755,279.823120 382.487396,280.406494 382.001068,280.989868 
	C380.967041,281.011383 379.932983,281.032867 378.441620,281.010162 
	C377.984283,280.965973 377.852570,280.818481 378.055054,280.545776 
	C382.645752,278.132446 384.202881,274.696594 384.144470,269.779205 
	C383.929291,251.662781 383.746063,233.534195 384.213470,215.427292 
	C384.400238,208.192108 382.275635,203.852264 375.638458,200.461212 
	C369.297943,197.221725 363.753723,193.296249 356.993317,198.940933 
z"/>
<path fill="#110E12" opacity="1.000000" stroke="none" 
	d="
M336.988464,434.259369 
	C339.548553,433.640778 342.131073,433.422974 345.136658,433.169464 
	C345.136658,422.627197 345.136658,412.254639 345.256287,401.424866 
	C346.247467,402.339417 347.835815,403.691895 347.873322,405.086121 
	C348.105530,413.714874 347.873413,422.355194 348.034363,430.987183 
	C348.122040,435.688507 343.728851,435.041718 341.400879,436.724976 
	C340.766785,437.183502 338.518433,435.409546 336.988464,434.259369 
z"/>
<path fill="#110E12" opacity="1.000000" stroke="none" 
	d="
M370.858459,433.814941 
	C370.733582,432.035492 371.317261,430.292084 371.328400,428.545044 
	C371.421417,413.927704 371.409210,399.309662 371.565430,384.302826 
	C372.137817,385.247620 372.943390,386.579010 372.952179,387.915619 
	C373.044128,401.862152 373.055573,415.809998 372.933289,429.756073 
	C372.921265,431.125153 371.870361,432.485107 370.858459,433.814941 
z"/>
<path fill="#061106" opacity="1.000000" stroke="none" 
	d="
M342.657471,177.859116 
	C342.973694,178.796906 342.954712,179.586853 342.534485,180.745026 
	C337.973083,178.774902 333.794220,176.469055 329.657745,174.089554 
	C325.030853,171.427933 320.486664,170.658295 315.696014,173.858429 
	C313.671570,175.210770 311.284454,176.020096 309.062164,177.076248 
	C314.305573,168.591370 325.515289,167.263718 334.523834,174.072861 
	C335.178925,174.568008 335.764862,175.154663 336.689819,175.850159 
	C338.771881,176.571457 340.547089,177.141373 342.657471,177.859116 
z"/>
<path fill="#9C9D9C" opacity="1.000000" stroke="none" 
	d="
M423.507324,428.158264 
	C422.852692,427.760559 422.541229,427.318329 421.881165,426.652283 
	C424.389984,423.702393 427.247467,420.976288 430.104950,418.250183 
	C430.125885,423.112000 427.024017,425.637787 423.507324,428.158264 
z"/>
<path fill="#080808" opacity="1.000000" stroke="none" 
	d="
M369.000244,293.598236 
	C368.641235,292.568817 368.283691,291.140045 368.132263,289.038208 
	C371.554871,286.907928 374.771332,285.450684 377.987793,283.993469 
	C377.645508,287.392151 376.240265,289.286530 372.351715,289.308197 
	C371.227875,289.314453 370.117981,291.832428 369.000244,293.598236 
z"/>
<path fill="#061106" opacity="1.000000" stroke="none" 
	d="
M377.992279,283.631409 
	C374.771332,285.450684 371.554871,286.907928 368.169189,288.681946 
	C366.910156,288.992523 365.820343,288.986267 364.499329,288.655640 
	C368.796295,285.827026 373.324432,283.322754 377.852570,280.818481 
	C377.852570,280.818481 377.984283,280.965973 378.054749,281.037384 
	C378.082397,281.828979 378.039581,282.549133 377.992279,283.631409 
z"/>
<path fill="#110E12" opacity="1.000000" stroke="none" 
	d="
M345.744629,392.015045 
	C345.300171,389.965057 345.222839,387.896881 345.261292,385.398468 
	C348.975616,386.960571 349.466187,389.277771 345.744629,392.015045 
z"/>
<path fill="#110E12" opacity="1.000000" stroke="none" 
	d="
M361.083160,434.253967 
	C363.388611,433.770874 365.762848,433.678833 368.562012,433.728943 
	C366.699280,437.409027 363.981903,436.596649 361.083160,434.253967 
z"/>
<path fill="#061106" opacity="1.000000" stroke="none" 
	d="
M365.428284,303.183105 
	C364.650757,300.034149 366.710144,299.298920 369.614807,299.005676 
	C370.014893,299.207611 370.029816,299.418915 370.063660,299.947388 
	C368.641357,301.222534 367.200195,302.180542 365.428284,303.183105 
z"/>
<path fill="#D8DCDC" opacity="1.000000" stroke="none" 
	d="
M382.346436,397.507019 
	C382.234833,399.339966 381.836823,401.468201 381.123962,403.836487 
	C380.421509,403.518707 380.033966,402.960907 379.400513,402.483917 
	C379.154541,402.564758 379.213318,402.572632 379.213318,402.572632 
	C380.162231,400.982544 381.111145,399.392456 382.346436,397.507019 
z"/>
<path fill="#080808" opacity="1.000000" stroke="none" 
	d="
M382.038696,281.335754 
	C382.487396,280.406494 382.973755,279.823120 383.724182,279.119354 
	C384.351440,280.425964 384.714600,281.852966 385.077759,283.279938 
	C384.713867,283.466095 384.349976,283.652222 383.986053,283.838379 
	C383.349487,283.119446 382.712921,282.400543 382.038696,281.335754 
z"/>
<path fill="#061106" opacity="1.000000" stroke="none" 
	d="
M380.061462,188.032410 
	C380.670319,187.902023 381.213715,188.110519 381.903259,188.577301 
	C381.261749,189.946625 380.474060,191.057663 379.686340,192.168701 
	C379.263031,191.850662 378.839691,191.532639 378.416382,191.214600 
	C378.942902,190.266830 379.469452,189.319046 380.061462,188.032410 
z"/>
<path fill="#9C9D9C" opacity="1.000000" stroke="none" 
	d="
M404.287292,433.963562 
	C405.514008,433.616852 406.997803,433.466614 408.722717,433.545227 
	C407.490692,433.902710 406.017548,434.031372 404.287292,433.963562 
z"/>
<path fill="#040505" opacity="1.000000" stroke="none" 
	d="
M354.014893,173.107040 
	C355.080872,173.210220 356.143402,173.697205 357.411377,174.473175 
	C356.105011,175.217575 354.132050,176.980743 354.014893,173.107040 
z"/>
<path fill="#061106" opacity="1.000000" stroke="none" 
	d="
M352.965210,178.701385 
	C352.441132,178.824936 351.887238,178.656647 351.166077,178.243866 
	C351.644318,178.136108 352.289856,178.272827 352.965210,178.701385 
z"/>
<path fill="#D8DCDC" opacity="1.000000" stroke="none" 
	d="
M387.689209,389.000000 
	C387.565979,389.654724 387.131378,390.295746 386.381714,390.979675 
	C386.503693,390.343811 386.940735,389.665039 387.689209,389.000000 
z"/>
<path fill="#110E12" opacity="1.000000" stroke="none" 
	d="
M371.847046,381.160461 
	C371.399658,381.296814 370.993988,381.119019 370.281799,380.809937 
	C370.330994,380.254822 370.686646,379.830994 371.042297,379.407104 
	C371.324402,379.886841 371.606537,380.366547 371.847046,381.160461 
z"/>
<path fill="#D8DCDC" opacity="1.000000" stroke="none" 
	d="
M391.522522,393.679749 
	C391.219879,393.389404 391.031036,392.756866 391.064514,392.050964 
	C391.403320,392.430908 391.519836,392.884247 391.522522,393.679749 
z"/>
<path fill="#D8DCDC" opacity="1.000000" stroke="none" 
	d="
M392.485657,398.759216 
	C392.108246,398.455841 391.793304,397.888763 391.681152,397.181519 
	C392.105347,397.526093 392.326721,398.010773 392.485657,398.759216 
z"/>
<path fill="#9C9D9C" opacity="1.000000" stroke="none" 
	d="
M398.701904,432.863281 
	C399.275848,432.689819 400.062622,432.719299 401.025909,433.011688 
	C400.439850,433.205139 399.677277,433.135651 398.701904,432.863281 
z"/>
<path fill="#110E12" opacity="1.000000" stroke="none" 
	d="
M354.093201,433.014099 
	C354.643341,432.912048 355.126312,433.203217 355.826263,433.675598 
	C355.569977,434.217590 355.096710,434.578400 354.311707,434.969604 
	C354.000000,435.000000 354.002869,435.002441 354.002869,435.002441 
	C354.010590,434.470734 354.018311,433.939026 354.093201,433.014099 
z"/>
<path fill="#110E12" opacity="1.000000" stroke="none" 
	d="
M379.188171,402.257629 
	C379.213318,402.572632 379.154541,402.564758 379.138672,402.589508 
	C378.942505,402.108856 378.762238,401.603455 378.581970,401.098053 
	C378.775635,401.379578 378.969330,401.661102 379.188171,402.257629 
z"/>
<path fill="#110E12" opacity="1.000000" stroke="none" 
	d="
M353.998779,434.998535 
	C353.904144,435.033875 353.810760,435.070709 353.860138,435.054993 
	C354.002869,435.002441 354.000000,435.000000 353.998779,434.998535 
z"/>
<path fill="#110E12" opacity="1.000000" stroke="none" 
	d="
M360.450409,437.530029 
	C360.418060,437.475159 360.482758,437.584900 360.450409,437.530029 
z"/>
<path fill="#110E12" opacity="1.000000" stroke="none" 
	d="
M340.085999,167.168182 
	C340.163971,167.000183 340.332855,167.000977 340.755127,167.000565 
	C340.731323,167.111893 340.454071,167.224426 340.085999,167.168182 
z"/>
<path fill="#080808" opacity="1.000000" stroke="none" 
	d="
M377.532532,291.550659 
	C377.476929,291.583984 377.588135,291.517365 377.532532,291.550659 
z"/>
<path fill="#080808" opacity="1.000000" stroke="none" 
	d="
M260.002502,291.870422 
	C263.432251,289.864777 265.654816,290.960388 266.754089,295.362854 
	C264.553162,294.507996 262.370026,293.322357 260.002502,291.870422 
z"/>
<path fill="#040505" opacity="1.000000" stroke="none" 
	d="
M251.123672,195.797180 
	C251.835846,196.511414 252.235199,197.281143 252.634552,198.050873 
	C251.611328,198.352325 250.588089,198.653778 249.152496,198.929306 
	C249.430405,197.886490 250.120636,196.869598 251.123672,195.797180 
z"/>
<path fill="#080808" opacity="1.000000" stroke="none" 
	d="
M279.877777,303.394287 
	C280.761261,303.491302 281.817871,303.868622 282.937622,304.608978 
	C282.017517,304.539520 281.034180,304.107056 279.877777,303.394287 
z"/>
<path fill="#080808" opacity="1.000000" stroke="none" 
	d="
M273.089722,299.453552 
	C273.212585,298.700775 273.488892,298.202332 273.765198,297.703888 
	C274.151062,298.342041 274.536957,298.980194 274.907776,299.945465 
	C274.342896,300.084351 273.793030,299.896118 273.089722,299.453552 
z"/>
<path fill="#0A0909" opacity="1.000000" stroke="none" 
	d="
M326.439148,325.584259 
	C326.716675,325.024139 327.295135,324.471649 328.027771,324.236694 
	C327.701294,324.900116 327.220703,325.245972 326.439148,325.584259 
z"/>
<path fill="#040505" opacity="1.000000" stroke="none" 
	d="
M248.481598,283.415009 
	C249.078476,283.626038 249.712769,284.159576 250.080780,284.885834 
	C249.382675,284.631561 248.950867,284.184509 248.481598,283.415009 
z"/>
<path fill="#080808" opacity="1.000000" stroke="none" 
	d="
M318.703247,157.507141 
	C318.999512,157.687912 319.230103,157.880661 319.460724,158.073425 
	C319.333954,157.999023 319.207214,157.924622 318.800262,157.716217 
	C318.520081,157.582230 318.637634,157.519135 318.703247,157.507141 
z"/>
<path fill="#0CD537" opacity="1.000000" stroke="none" 
	d="
M378.055054,280.545776 
	C373.324432,283.322754 368.796295,285.827026 364.091980,288.622559 
	C363.915802,288.913818 363.956879,288.935852 363.594482,288.953247 
	C360.490784,290.656250 357.749542,292.341827 355.008270,294.027405 
	C354.455627,294.200897 353.903015,294.374420 352.844727,294.832520 
	C350.747498,296.283966 349.155853,297.450775 347.212006,298.665894 
	C343.527771,300.766907 340.195740,302.819550 336.863708,304.872192 
	C336.863708,304.872192 337.000916,304.891205 336.619568,304.865234 
	C335.814240,304.879028 335.390259,304.918762 334.772858,304.718506 
	C333.400940,305.339020 332.222473,306.199554 331.018799,307.036438 
	C330.993591,307.012726 331.051788,307.046478 330.736694,307.041107 
	C329.967133,307.403381 329.512634,307.771027 329.076385,308.120056 
	C329.094635,308.101471 329.111969,308.156128 328.695892,308.098572 
	C321.095795,310.366333 315.814941,306.580231 310.154724,302.973328 
	C306.136261,300.412567 301.309937,299.119507 296.851929,297.236084 
	C296.859650,297.211578 296.909119,297.199768 296.778320,296.887878 
	C294.749359,295.721222 292.851227,294.866394 290.669067,293.975983 
	C289.933838,293.617798 289.482697,293.295197 288.993683,292.617798 
	C283.650726,289.163391 278.345612,286.063812 272.874695,282.667267 
	C271.648773,281.592285 270.694397,280.543671 269.510925,280.081268 
	C263.025421,277.547119 261.682831,272.666718 261.855133,266.169403 
	C262.219849,252.418762 261.896210,238.649841 261.895996,224.886017 
	C261.937103,224.883621 261.871613,224.833679 262.289673,224.902588 
	C263.551025,224.910278 264.394318,224.849045 265.237640,224.787811 
	C265.237640,224.787811 265.157745,224.866989 265.265015,225.141891 
	C267.707886,227.043793 270.027313,228.694672 272.382965,230.292084 
	C275.690765,232.535141 278.540283,234.628357 278.149658,239.599716 
	C277.593842,246.673309 277.796448,253.833527 278.140686,260.934174 
	C278.242767,263.039215 279.911713,265.068298 280.951538,267.465485 
	C283.467346,269.067383 285.894257,270.335968 288.322723,271.641357 
	C288.324249,271.678192 288.251404,271.666840 288.329163,272.004028 
	C289.259430,272.571991 290.111969,272.802765 291.197327,273.067810 
	C291.748047,273.189850 291.996765,273.372101 292.158844,274.032623 
	C293.840057,275.197876 295.538696,275.979309 297.237335,276.760773 
	C297.237335,276.760773 297.125031,276.801056 297.206299,277.105042 
	C300.481873,278.947449 303.676147,280.485840 306.988281,282.101624 
	C307.106140,282.179047 307.197021,282.446014 307.265106,282.810608 
	C309.262360,284.078156 311.191498,284.981110 313.074707,285.923401 
	C313.028717,285.962738 313.075562,285.851135 313.189758,286.194458 
	C319.374084,291.067078 324.714874,291.505890 331.048798,287.502991 
	C336.172058,284.265289 341.047852,280.635925 346.245728,277.048340 
	C346.780792,276.845673 347.103516,276.774933 347.809723,276.774170 
	C350.168304,275.604980 352.143372,274.365784 354.474792,273.085236 
	C356.199615,272.007874 357.568146,270.971893 358.944061,269.952484 
	C358.951447,269.969055 358.936676,269.950287 359.337952,269.979492 
	C362.072021,269.780426 364.807648,270.129089 364.808197,266.345978 
	C364.851105,266.192688 365.082550,265.974152 365.452942,265.902863 
	C366.785156,262.163055 369.618622,258.415497 365.364532,254.967224 
	C365.266846,245.954254 365.169189,236.941299 365.124878,227.229691 
	C365.253693,226.366486 365.329102,226.201904 365.748932,225.903351 
	C366.905731,222.732391 368.762451,219.563766 364.738251,217.096436 
	C364.301971,217.067032 364.128265,217.044662 363.762543,216.752838 
	C361.465149,217.764801 359.359741,219.046188 357.279083,220.370300 
	C357.303802,220.413010 357.315826,220.510986 356.947021,220.396301 
	C352.707428,222.509613 348.836639,224.737625 344.611877,227.016083 
	C341.514587,229.055496 338.771301,231.044479 335.778320,233.242630 
	C333.925629,234.593887 332.322601,235.735992 330.719604,236.878082 
	C330.719604,236.878082 330.314850,236.903519 329.893951,237.027344 
	C329.278046,237.412140 329.083069,237.673096 328.888062,237.934067 
	C328.888062,237.934067 328.973633,237.950638 328.544952,237.941727 
	C323.291931,239.908630 318.890656,239.271179 314.360443,236.584518 
	C298.647308,227.265732 282.791870,218.186905 266.990570,209.016785 
	C266.990570,209.016785 267.000000,208.999390 266.931396,208.631653 
	C265.082397,204.707230 266.375977,202.426147 269.613861,200.456848 
	C274.501312,197.484299 279.179291,194.167358 283.946289,190.996780 
	C283.946289,190.996780 284.122406,190.685623 284.483978,190.464355 
	C286.288574,189.521729 287.731567,188.800369 289.174591,188.079010 
	C289.720978,187.951202 290.267334,187.823395 291.291382,187.406357 
	C292.884186,186.442490 293.999329,185.767853 295.114441,185.093216 
	C295.114441,185.093216 295.006287,185.055145 295.404358,185.070801 
	C298.934387,183.124359 302.066315,181.162262 305.198242,179.200165 
	C305.198242,179.200165 305.068359,179.229065 305.463745,179.230011 
	C306.929077,178.504578 307.998993,177.778183 309.068939,177.051788 
	C309.068939,177.051788 309.043671,177.039078 309.052917,177.057663 
	C311.284454,176.020096 313.671570,175.210770 315.696014,173.858429 
	C320.486664,170.658295 325.030853,171.427933 329.657745,174.089554 
	C333.794220,176.469055 337.973083,178.774902 342.489075,181.137695 
	C342.844879,181.162125 342.873932,181.140228 343.038452,181.424255 
	C345.408630,184.038345 351.437500,185.081894 345.988983,189.987610 
	C345.988983,189.987610 346.000000,190.000000 345.658081,190.028778 
	C343.856995,191.020218 342.397858,191.982880 340.938721,192.945541 
	C340.938721,192.945541 341.006470,192.987778 340.628326,192.992477 
	C338.322784,194.266678 336.395416,195.536179 334.468018,196.805679 
	C334.123077,196.842712 333.778137,196.879730 332.851929,196.926025 
	C321.459259,192.053635 315.883514,192.932281 307.553864,200.830307 
	C307.553864,200.830307 307.240570,200.795990 306.759399,200.897339 
	C304.601807,202.551727 302.925354,204.104752 301.248901,205.657791 
	C302.499603,206.765930 303.750305,207.874069 305.001007,208.982208 
	C305.001007,208.982208 305.192871,209.202362 305.567505,209.473602 
	C309.628418,211.935165 313.159027,214.482132 317.058472,216.183853 
	C319.451843,217.228333 322.911072,218.070755 325.019623,217.103271 
	C331.095062,214.315643 336.727753,210.563110 342.534363,207.189606 
	C342.534363,207.189621 342.803772,207.264755 343.240051,207.141449 
	C344.296997,206.410797 344.917694,205.803436 345.538391,205.196091 
	C345.538391,205.196091 345.798462,205.283829 346.260956,205.184692 
	C348.841675,203.742813 350.959900,202.400085 353.078125,201.057358 
	C353.078125,201.057358 353.004517,201.011414 353.361603,201.036438 
	C354.620544,200.428543 355.522369,199.795639 356.424225,199.162720 
	C356.424225,199.162720 356.755890,199.173004 356.874603,199.056976 
	C363.753723,193.296249 369.297943,197.221725 375.638458,200.461212 
	C382.275635,203.852264 384.400238,208.192108 384.213470,215.427292 
	C383.746063,233.534195 383.929291,251.662781 384.144470,269.779205 
	C384.202881,274.696594 382.645752,278.132446 378.055054,280.545776 
z"/>
<path fill="#000000" opacity="1.000000" stroke="none" 
	d="
M329.006104,239.999390 
	C330.952667,240.213409 332.894501,240.528534 334.846802,240.619949 
	C338.635590,240.797333 342.451324,241.149063 346.217682,240.884445 
	C352.310638,240.456375 352.979553,240.888229 352.997986,247.139709 
	C353.009674,251.116989 353.001556,255.094345 353.004028,259.870575 
	C353.006653,261.110138 353.007599,261.550812 353.008545,261.991455 
	C350.857208,263.912384 348.705902,265.833313 345.561249,268.641235 
	C345.581482,273.169983 337.716888,276.339874 328.790924,273.142914 
	C328.171021,275.007233 327.550568,276.873138 326.930145,278.739044 
	C326.477509,278.732269 326.024902,278.725464 325.572266,278.718689 
	C325.247650,277.102264 324.923035,275.485840 324.402283,272.892578 
	C319.979431,272.892578 315.303802,272.710693 310.650116,272.952148 
	C307.151520,273.133728 304.885101,272.746735 304.896057,268.359314 
	C304.903900,265.229584 303.935822,262.097412 303.312073,258.430481 
	C300.676056,257.994965 297.661865,257.322266 294.611572,257.040955 
	C291.414795,256.746155 289.658203,255.511810 289.974854,252.044815 
	C290.125488,250.395584 290.113647,248.711868 289.977173,247.060135 
	C289.686188,243.538101 290.928680,241.944305 294.746918,241.920013 
	C301.191223,241.879044 307.632355,241.332138 314.994781,240.997009 
	C319.943390,240.664810 323.972046,240.333588 328.000671,240.002350 
	C328.000671,240.002350 328.000000,240.000000 328.088226,240.167053 
	C328.453003,240.222519 328.729553,240.110962 329.006104,239.999390 
z"/>
<path fill="#061106" opacity="1.000000" stroke="none" 
	d="
M328.114319,239.733215 
	C323.972046,240.333588 319.943390,240.664810 315.462830,240.994965 
	C314.930756,240.336670 314.813843,239.101578 314.775574,239.104004 
	C308.514557,239.501846 306.430481,232.505447 300.598267,231.435211 
	C293.762360,230.180771 289.246490,223.993774 283.235504,220.726471 
	C279.031738,218.441528 274.684296,216.403015 270.598206,213.928818 
	C269.104431,213.024323 268.179413,211.180573 266.992737,209.391052 
	C282.791870,218.186905 298.647308,227.265732 314.360443,236.584518 
	C318.890656,239.271179 323.291931,239.908630 328.526001,237.902481 
	C328.699799,238.402786 328.463898,238.933426 328.114319,239.733215 
z"/>
<path fill="#061106" opacity="1.000000" stroke="none" 
	d="
M257.007324,236.993088 
	C257.668213,234.912430 258.329102,232.831757 258.995178,229.958893 
	C258.998230,227.777893 258.996063,226.389114 258.993896,225.000320 
	C258.995972,224.555939 258.998047,224.111557 259.267303,223.213852 
	C260.023407,222.174103 260.512329,221.587662 261.001221,221.001221 
	C262.335815,221.662720 263.670441,222.324203 264.673065,223.398148 
	C263.517944,224.151627 262.694763,224.492645 261.871613,224.833679 
	C261.871613,224.833679 261.937103,224.883621 261.536316,225.134796 
	C261.189606,242.787766 261.243652,260.189545 260.926147,277.714966 
	C260.038452,277.891876 259.522278,277.945099 259.006104,277.998352 
	C259.003906,277.554260 259.001709,277.110199 258.997406,275.999115 
	C258.985626,274.886993 258.975983,274.441895 258.966339,273.996765 
	C258.974457,273.552795 258.982574,273.108856 258.994629,271.863373 
	C258.999298,261.150787 259.080963,251.238342 258.911896,241.330170 
	C258.887054,239.874069 257.671814,238.438278 257.007324,236.993088 
z"/>
<path fill="#1FB240" opacity="1.000000" stroke="none" 
	d="
M280.862671,267.132172 
	C279.911713,265.068298 278.242767,263.039215 278.140686,260.934174 
	C277.796448,253.833527 277.593842,246.673309 278.149658,239.599716 
	C278.540283,234.628357 275.690765,232.535141 272.382965,230.292084 
	C270.027313,228.694672 267.707886,227.043793 265.247314,225.088516 
	C265.780670,224.852921 266.438965,224.945618 267.645050,225.353668 
	C271.707916,227.537521 275.222992,229.406021 278.738068,231.274506 
	C278.738068,231.274506 279.023804,231.080917 278.888611,231.476318 
	C279.132935,232.595474 279.512512,233.319244 279.892090,234.042999 
	C279.889618,241.389786 279.887146,248.736557 279.878113,256.970398 
	C280.225800,260.255646 280.580048,262.653809 280.934296,265.051971 
	C280.934296,265.051971 280.945740,265.054901 280.931458,265.365906 
	C280.984741,266.077881 281.052368,266.478882 281.055908,266.943207 
	C280.991821,267.006531 280.862671,267.132172 280.862671,267.132172 
z"/>
<path fill="#061106" opacity="1.000000" stroke="none" 
	d="
M307.197021,282.446014 
	C307.197021,282.446014 307.106140,282.179047 307.006470,281.862030 
	C306.906769,281.545013 306.870392,281.066223 306.870392,281.066223 
	C312.499634,284.531982 319.503601,280.909485 325.257996,284.665894 
	C326.347870,285.377380 329.092377,283.556519 331.072449,282.901306 
	C332.887421,282.300720 334.701141,281.696350 336.732910,281.441223 
	C329.665558,287.100769 322.258331,291.693481 313.075562,285.851135 
	C313.075562,285.851135 313.028717,285.962738 312.912872,285.619995 
	C310.930359,284.333527 309.063690,283.389771 307.197021,282.446014 
z"/>
<path fill="#23B646" opacity="1.000000" stroke="none" 
	d="
M261.297699,277.591309 
	C261.243652,260.189545 261.189606,242.787766 261.495209,225.137207 
	C261.896210,238.649841 262.219849,252.418762 261.855133,266.169403 
	C261.682831,272.666718 263.025421,277.547119 269.510925,280.081268 
	C270.694397,280.543671 271.648773,281.592285 272.750305,282.795471 
	C272.791656,283.220642 272.544312,283.478546 272.236572,283.395264 
	C271.307251,283.184753 270.685638,283.057495 270.064026,282.930237 
	C270.064026,282.930237 270.018677,282.953491 269.950500,282.736725 
	C269.650208,282.276123 269.369293,282.188049 269.039581,282.255737 
	C269.039581,282.255737 268.681427,281.978699 268.329163,281.692749 
	C267.649384,281.284698 267.321869,281.162598 266.853455,280.944794 
	C266.712616,280.849091 266.372040,280.849274 266.155762,280.578369 
	C264.391083,279.440857 262.842621,278.574280 261.294250,277.678528 
	C261.294312,277.649414 261.297699,277.591309 261.297699,277.591309 
z"/>
<path fill="#23B646" opacity="1.000000" stroke="none" 
	d="
M296.844208,297.260620 
	C301.309937,299.119507 306.136261,300.412567 310.154724,302.973328 
	C315.814941,306.580231 321.095795,310.366333 328.496521,308.395966 
	C324.209167,312.507477 319.649292,310.668732 315.089966,308.886963 
	C315.089966,308.886963 315.036011,308.889648 314.868439,308.617493 
	C311.149353,306.480743 307.597839,304.616089 304.046326,302.751465 
	C304.046326,302.751465 303.802521,302.615875 303.533508,302.371490 
	C301.124390,300.504944 298.984314,298.882782 296.844208,297.260620 
z"/>
<path fill="#040505" opacity="1.000000" stroke="none" 
	d="
M257.004730,237.462433 
	C257.671814,238.438278 258.887054,239.874069 258.911896,241.330170 
	C259.080963,251.238342 258.999298,261.150787 258.996246,271.530365 
	C258.329681,270.554993 257.114960,269.120483 257.090088,267.665680 
	C256.920746,257.756775 257.001862,247.843597 257.004730,237.462433 
z"/>
<path fill="#061106" opacity="1.000000" stroke="none" 
	d="
M283.572571,191.003296 
	C279.179291,194.167358 274.501312,197.484299 269.613861,200.456848 
	C266.375977,202.426147 265.082397,204.707230 266.922852,208.636444 
	C266.239807,209.005005 265.496704,209.001038 264.382294,208.994263 
	C263.361145,203.596710 265.457184,199.697037 270.181000,196.981827 
	C271.113098,196.446030 271.462311,194.896057 272.083496,193.808289 
	C276.464203,196.848862 279.192719,191.088867 283.572571,191.003296 
z"/>
<path fill="#1FB240" opacity="1.000000" stroke="none" 
	d="
M313.189758,286.194458 
	C322.258331,291.693481 329.665558,287.100769 337.146851,281.498779 
	C337.343323,281.208771 337.695190,281.145020 338.163696,281.047913 
	C339.442291,280.335083 340.252380,279.719299 341.062469,279.103516 
	C341.062469,279.103516 341.058167,279.038361 341.357544,279.066711 
	C342.111877,278.739960 342.566803,278.384857 343.021759,278.029785 
	C343.207428,277.980286 343.393097,277.930786 344.027649,277.756592 
	C344.746368,277.502777 344.899170,277.289520 344.934814,276.992157 
	C344.934814,276.992157 344.993408,277.007385 345.255585,277.021240 
	C345.689636,277.083496 345.861511,277.131897 346.033386,277.180298 
	C341.047852,280.635925 336.172058,284.265289 331.048798,287.502991 
	C324.714874,291.505890 319.374084,291.067078 313.189758,286.194458 
z"/>
<path fill="#040505" opacity="1.000000" stroke="none" 
	d="
M266.372040,280.849274 
	C266.372040,280.849274 266.712616,280.849091 266.854095,281.188843 
	C266.995575,281.528564 267.004913,282.017151 267.004913,282.017151 
	C266.060028,283.469299 265.115143,284.921448 263.900024,286.788910 
	C261.958466,286.411255 259.655304,285.963287 257.036255,285.453888 
	C257.501068,282.825073 257.918365,280.465179 258.670868,278.051819 
	C259.522278,277.945099 260.038452,277.891876 260.926147,277.714966 
	C261.297699,277.591309 261.294312,277.649414 261.227844,278.081177 
	C262.898254,279.291687 264.635162,280.070496 266.372040,280.849274 
z"/>
<path fill="#061106" opacity="1.000000" stroke="none" 
	d="
M315.097534,309.267242 
	C319.649292,310.668732 324.209167,312.507477 328.912598,308.453522 
	C329.111969,308.156128 329.094635,308.101471 329.383362,308.114990 
	C330.131989,307.767792 330.591888,307.407135 331.051788,307.046478 
	C331.051788,307.046478 330.993591,307.012726 331.346069,307.003967 
	C332.787781,306.316284 333.877045,305.637390 334.966278,304.958527 
	C335.390259,304.918762 335.814240,304.879028 336.556976,304.835541 
	C336.370514,305.709473 335.865295,306.587158 334.861664,307.890869 
	C332.574371,309.542816 330.785522,310.768707 328.996643,311.994568 
	C325.882324,312.310272 322.732208,313.038391 319.668365,312.772522 
	C318.068939,312.633698 316.621307,310.745544 315.097534,309.267242 
z"/>
<path fill="#23B646" opacity="1.000000" stroke="none" 
	d="
M272.916077,283.092438 
	C278.345612,286.063812 283.650726,289.163391 288.643982,292.587769 
	C286.258057,291.899628 284.183990,290.886719 282.109924,289.873779 
	C282.109924,289.873779 282.025360,289.890717 281.981750,289.670044 
	C281.630798,289.343597 281.323517,289.237885 281.016205,289.132172 
	C280.698181,288.994019 280.380127,288.855835 279.634583,288.432037 
	C277.174469,287.058990 275.141815,285.971558 273.109192,284.884125 
	C273.109192,284.884125 272.997498,284.993469 273.018616,284.687317 
	C272.874573,284.080261 272.709442,283.779419 272.544312,283.478546 
	C272.544312,283.478546 272.791656,283.220642 272.916077,283.092438 
z"/>
<path fill="#061106" opacity="1.000000" stroke="none" 
	d="
M365.082520,265.974152 
	C365.082550,265.974152 364.851105,266.192688 364.464142,266.429932 
	C362.392456,267.452454 360.707733,268.237732 358.981628,268.978516 
	C358.940277,268.934021 358.861237,268.841644 358.861237,268.841644 
	C360.612732,264.952423 362.364227,261.063202 364.571655,257.522827 
	C365.045898,260.572510 365.064209,263.273315 365.082520,265.974152 
z"/>
<path fill="#061106" opacity="1.000000" stroke="none" 
	d="
M282.075989,290.253296 
	C284.183990,290.886719 286.258057,291.899628 288.681824,292.942566 
	C289.482697,293.295197 289.933838,293.617798 290.846924,294.227905 
	C292.238190,295.301544 293.167480,296.087646 294.046082,296.932617 
	C293.995392,296.991486 293.889526,297.105225 293.889526,297.105225 
	C289.526398,295.705475 284.331482,295.828339 282.075989,290.253296 
z"/>
<path fill="#1FB240" opacity="1.000000" stroke="none" 
	d="
M344.965851,226.965637 
	C348.836639,224.737625 352.707428,222.509613 356.786682,220.658264 
	C355.654541,222.010162 354.313995,222.985382 352.973450,223.960602 
	C352.973450,223.960602 353.001221,223.995636 352.726105,224.059662 
	C352.198334,224.375946 351.945679,224.628235 351.693024,224.880524 
	C351.196136,225.024063 350.699280,225.167618 349.711853,225.611847 
	C347.979462,226.447708 346.737579,226.982864 345.363312,227.379852 
	C345.230896,227.241699 344.965851,226.965637 344.965851,226.965637 
z"/>
<path fill="#040505" opacity="1.000000" stroke="none" 
	d="
M260.996216,220.630615 
	C260.512329,221.587662 260.023407,222.174103 259.268402,222.880569 
	C258.109253,220.718323 257.216187,218.436035 256.323151,216.153732 
	C256.985382,215.844879 257.647644,215.536026 258.309906,215.227173 
	C259.203674,216.904785 260.097443,218.582397 260.996216,220.630615 
z"/>
<path fill="#061106" opacity="1.000000" stroke="none" 
	d="
M355.239380,294.297974 
	C357.749542,292.341827 360.490784,290.656250 363.585571,288.938721 
	C363.957245,289.678986 363.975433,290.451233 363.652740,291.642029 
	C361.874176,293.037964 360.436493,294.015381 358.998810,294.992767 
	C357.822723,294.851349 356.646606,294.709930 355.239380,294.297974 
z"/>
<path fill="#061106" opacity="1.000000" stroke="none" 
	d="
M304.061554,303.136688 
	C307.597839,304.616089 311.149353,306.480743 314.891205,308.629089 
	C310.172974,309.647736 306.884491,307.075531 304.061554,303.136688 
z"/>
<path fill="#061106" opacity="1.000000" stroke="none" 
	d="
M337.266022,304.916626 
	C340.195740,302.819550 343.527771,300.766907 347.334259,298.773499 
	C347.808716,298.832703 348.050385,299.051025 348.034912,299.289368 
	C348.019409,299.527710 348.013733,300.005371 348.013733,300.005371 
	C344.565247,301.657257 341.116791,303.309143 337.266022,304.916626 
z"/>
<path fill="#1FB240" opacity="1.000000" stroke="none" 
	d="
M365.452911,265.902863 
	C365.064209,263.273315 365.045898,260.572510 364.935699,257.428314 
	C364.933441,256.529144 365.023102,256.073364 365.238647,255.292389 
	C369.618622,258.415497 366.785156,262.163055 365.452911,265.902863 
z"/>
<path fill="#061106" opacity="1.000000" stroke="none" 
	d="
M278.795898,230.930084 
	C275.222992,229.406021 271.707916,227.537521 267.977844,225.394989 
	C270.258331,225.719604 272.753754,226.318283 275.624603,226.958481 
	C276.000000,227.000000 275.998779,226.999252 275.998779,226.999252 
	C276.950439,228.194717 277.902069,229.390182 278.795898,230.930084 
z"/>
<path fill="#0A0909" opacity="1.000000" stroke="none" 
	d="
M329.229462,312.265991 
	C330.785522,310.768707 332.574371,309.542816 334.677185,308.158936 
	C335.081909,309.113617 335.491791,311.095337 335.211853,311.198151 
	C333.378510,311.871216 331.396027,312.137970 329.229462,312.265991 
z"/>
<path fill="#061106" opacity="1.000000" stroke="none" 
	d="
M292.176270,273.648834 
	C291.996765,273.372101 291.748047,273.189850 291.018829,272.799927 
	C289.822144,272.220856 289.036774,271.943848 288.251404,271.666840 
	C288.251404,271.666840 288.324249,271.678192 288.282593,271.398865 
	C288.131622,270.807465 288.022308,270.495422 287.912994,270.183350 
	C292.088226,267.405792 293.860413,269.684235 294.551880,273.830750 
	C293.527893,273.987854 292.852081,273.818359 292.176270,273.648834 
z"/>
<path fill="#061106" opacity="1.000000" stroke="none" 
	d="
M365.404480,226.037338 
	C365.329102,226.201904 365.253693,226.366486 365.044006,226.767151 
	C364.272217,225.726349 363.690826,224.417145 362.980225,223.182312 
	C362.359863,222.104309 361.593903,221.110092 360.446014,220.031097 
	C359.999756,219.983368 359.893280,219.859344 360.090759,219.611877 
	C361.510345,218.583710 362.732452,217.802994 363.954559,217.022278 
	C364.128265,217.044662 364.301971,217.067032 364.734863,217.537643 
	C365.130859,220.669693 365.267670,223.353516 365.404480,226.037338 
z"/>
<path fill="#061106" opacity="1.000000" stroke="none" 
	d="
M296.851929,297.236084 
	C298.984314,298.882782 301.124390,300.504944 303.414124,302.443573 
	C300.402161,301.093689 297.240570,299.427338 293.984253,297.433105 
	C293.889526,297.105225 293.995392,296.991486 294.398987,296.965088 
	C295.504730,297.025757 296.206940,297.112762 296.909119,297.199768 
	C296.909119,297.199768 296.859650,297.211578 296.851929,297.236084 
z"/>
<path fill="#061106" opacity="1.000000" stroke="none" 
	d="
M331.118164,236.919449 
	C332.322601,235.735992 333.925629,234.593887 336.024963,233.285004 
	C336.686890,233.140244 336.852478,233.162277 337.018066,233.184326 
	C337.018066,234.901230 337.018066,236.618134 337.018066,238.460236 
	C334.774597,237.848770 333.145660,237.404785 331.118164,236.919449 
z"/>
<path fill="#061106" opacity="1.000000" stroke="none" 
	d="
M344.840790,228.857300 
	C345.315277,230.003098 345.789734,231.148895 346.296692,232.373138 
	C343.853729,232.553741 341.208466,232.749283 338.385376,232.642426 
	C340.418640,231.179108 342.629700,230.018204 344.840790,228.857300 
z"/>
<path fill="#061106" opacity="1.000000" stroke="none" 
	d="
M353.359558,223.983109 
	C354.313995,222.985382 355.654541,222.010162 357.155457,220.772949 
	C357.315826,220.510986 357.303802,220.413010 357.613586,220.365143 
	C358.580017,220.164642 359.236633,220.011993 359.893280,219.859344 
	C359.893280,219.859344 359.999756,219.983368 360.056732,220.043732 
	C359.589264,221.599106 359.064819,223.094116 358.446472,224.856873 
	C356.775757,224.554321 355.260712,224.279968 353.359558,223.983109 
z"/>
<path fill="#061106" opacity="1.000000" stroke="none" 
	d="
M273.072266,285.309692 
	C275.141815,285.971558 277.174469,287.058990 279.372955,288.459717 
	C277.083618,288.375702 273.159851,291.122437 273.072266,285.309692 
z"/>
<path fill="#080808" opacity="1.000000" stroke="none" 
	d="
M359.343597,295.144836 
	C360.436493,294.015381 361.874176,293.037964 363.651062,292.027832 
	C366.265045,297.927795 362.367249,295.818268 359.343597,295.144836 
z"/>
<path fill="#1FB240" opacity="1.000000" stroke="none" 
	d="
M306.647217,281.037445 
	C306.870392,281.066223 306.906769,281.545013 306.888611,281.784607 
	C303.676147,280.485840 300.481873,278.947449 297.221893,277.047485 
	C297.323456,276.638153 297.490692,276.590424 298.081421,276.650818 
	C298.504913,276.758911 298.985168,276.811737 298.985168,276.811737 
	C298.985168,276.811737 299.338776,277.056610 299.754608,277.357910 
	C302.121368,278.707397 304.072327,279.755615 306.023254,280.803833 
	C306.023254,280.803833 306.424042,281.008667 306.647217,281.037445 
z"/>
<path fill="#1FB240" opacity="1.000000" stroke="none" 
	d="
M344.848938,228.872986 
	C342.629700,230.018204 340.418640,231.179108 337.985046,232.601257 
	C337.762573,232.862488 337.348267,232.925446 337.183167,233.054886 
	C336.852478,233.162277 336.686890,233.140244 336.274658,233.075836 
	C338.771301,231.044479 341.514587,229.055496 344.611877,227.016083 
	C344.965851,226.965637 345.230896,227.241699 345.226135,227.593765 
	C345.104797,228.260864 344.988190,228.575882 344.871582,228.890900 
	C344.871582,228.890900 344.857056,228.888672 344.848938,228.872986 
z"/>
<path fill="#061106" opacity="1.000000" stroke="none" 
	d="
M306.015747,280.407013 
	C304.072327,279.755615 302.121368,278.707397 299.967407,277.389008 
	C302.064819,277.609375 305.775970,275.053497 306.015747,280.407013 
z"/>
<path fill="#1FB240" opacity="1.000000" stroke="none" 
	d="
M287.585327,270.120239 
	C288.022308,270.495422 288.131622,270.807465 288.281067,271.362061 
	C285.894257,270.335968 283.467346,269.067383 280.951538,267.465485 
	C280.862671,267.132172 280.991821,267.006531 281.357788,266.995422 
	C282.128937,267.030273 282.534119,267.076294 282.939301,267.122314 
	C283.157501,267.370453 283.375732,267.618561 283.892487,268.142822 
	C284.384491,268.681793 284.640869,268.779358 284.960175,268.711670 
	C285.726013,269.160156 286.491852,269.608643 287.585327,270.120239 
z"/>
<path fill="#061106" opacity="1.000000" stroke="none" 
	d="
M346.245728,277.048340 
	C345.861511,277.131897 345.689636,277.083496 345.253632,276.991028 
	C346.590057,275.694275 348.190613,274.441559 349.997681,273.559509 
	C349.278198,274.854858 348.352234,275.779510 347.426239,276.704163 
	C347.103516,276.774933 346.780792,276.845673 346.245728,277.048340 
z"/>
<path fill="#1FB240" opacity="1.000000" stroke="none" 
	d="
M347.809723,276.774170 
	C348.352234,275.779510 349.278198,274.854858 350.385864,273.655457 
	C350.895386,273.299866 351.223236,273.219025 352.074249,273.048279 
	C352.980499,272.885498 353.363556,272.812561 353.839935,272.836060 
	C353.933228,272.932465 354.118469,273.126617 354.118469,273.126617 
	C352.143372,274.365784 350.168304,275.604980 347.809723,276.774170 
z"/>
<path fill="#061106" opacity="1.000000" stroke="none" 
	d="
M347.686462,298.725128 
	C349.155853,297.450775 350.747498,296.283966 352.676331,295.076233 
	C352.434143,296.160461 351.854767,297.285583 350.764832,298.705322 
	C349.519623,299.016998 348.785004,299.033997 348.050385,299.051025 
	C348.050385,299.051025 347.808716,298.832703 347.686462,298.725128 
z"/>
<path fill="#1FB240" opacity="1.000000" stroke="none" 
	d="
M292.158844,274.032623 
	C292.852081,273.818359 293.527893,273.987854 294.547180,274.217102 
	C295.620697,274.917450 296.350769,275.558075 297.159088,276.479736 
	C295.538696,275.979309 293.840057,275.197876 292.158844,274.032623 
z"/>
<path fill="#040505" opacity="1.000000" stroke="none" 
	d="
M258.634521,225.068237 
	C258.996063,226.389114 258.998230,227.777893 258.999573,229.583313 
	C255.914612,228.801666 256.539032,227.051620 258.634521,225.068237 
z"/>
<path fill="#061106" opacity="1.000000" stroke="none" 
	d="
M345.256104,228.926468 
	C344.988190,228.575882 345.104797,228.260864 345.358582,227.731934 
	C346.737579,226.982864 347.979462,226.447708 349.550537,225.819763 
	C348.466705,226.805313 347.053650,227.883667 345.256104,228.926468 
z"/>
<path fill="#1FB240" opacity="1.000000" stroke="none" 
	d="
M358.936676,269.935913 
	C357.568146,270.971893 356.199615,272.007874 354.474792,273.085236 
	C354.118469,273.126617 353.933228,272.932465 353.874969,272.645386 
	C353.816711,272.358307 353.757233,271.974274 353.757233,271.974274 
	C353.757233,271.974274 354.045715,271.799652 354.473175,271.568848 
	C356.245972,270.870697 357.591339,270.403320 358.936676,269.935913 
z"/>
<path fill="#0A0909" opacity="1.000000" stroke="none" 
	d="
M348.034912,299.289368 
	C348.785004,299.033997 349.519623,299.016998 350.622040,298.997559 
	C351.476593,299.422302 351.963348,299.849457 352.450104,300.276642 
	C351.184082,300.278412 349.918091,300.280182 348.332886,300.143677 
	C348.013733,300.005371 348.019409,299.527710 348.034912,299.289368 
z"/>
<path fill="#061106" opacity="1.000000" stroke="none" 
	d="
M340.784088,278.946533 
	C340.252380,279.719299 339.442291,280.335083 338.313171,280.949768 
	C337.907074,279.845032 337.820068,278.741394 337.692688,277.126038 
	C338.795837,277.778412 339.650757,278.283997 340.784088,278.946533 
z"/>
<path fill="#061106" opacity="1.000000" stroke="none" 
	d="
M280.962555,264.619629 
	C280.580048,262.653809 280.225800,260.255646 279.955200,257.434662 
	C280.356201,259.403656 280.673492,261.795471 280.962555,264.619629 
z"/>
<path fill="#061106" opacity="1.000000" stroke="none" 
	d="
M358.944061,269.952484 
	C357.591339,270.403320 356.245972,270.870697 354.549103,271.418335 
	C355.486511,270.645111 356.775482,269.791656 358.462830,268.889954 
	C358.861237,268.841644 358.940277,268.934021 358.952118,269.209564 
	C358.963959,269.485107 358.936676,269.950287 358.936676,269.950287 
	C358.936676,269.950287 358.951447,269.969055 358.944061,269.952484 
z"/>
<path fill="#061106" opacity="1.000000" stroke="none" 
	d="
M279.019562,221.075317 
	C279.612091,221.583893 279.880096,222.094315 280.148132,222.604721 
	C279.401154,222.608414 278.654205,222.612106 277.907227,222.615799 
	C278.169830,222.102921 278.432465,221.590042 279.019562,221.075317 
z"/>
<path fill="#061106" opacity="1.000000" stroke="none" 
	d="
M280.171722,233.844833 
	C279.512512,233.319244 279.132935,232.595474 278.741516,231.565094 
	C279.303558,232.054550 279.877472,232.850616 280.171722,233.844833 
z"/>
<path fill="#061106" opacity="1.000000" stroke="none" 
	d="
M276.000610,227.000381 
	C276.543518,226.391479 277.085846,225.782196 277.628143,225.172913 
	C277.924622,225.454147 278.221130,225.735367 278.517609,226.016586 
	C277.906342,226.339813 277.295074,226.663025 276.341309,226.992737 
	C275.998779,226.999252 276.000000,227.000000 276.000610,227.000381 
z"/>
<path fill="#061106" opacity="1.000000" stroke="none" 
	d="
M272.236572,283.395264 
	C272.709442,283.779419 272.874573,284.080261 273.075989,284.635468 
	C272.114746,284.476501 271.117157,284.063202 270.091797,283.290070 
	C270.685638,283.057495 271.307251,283.184753 272.236572,283.395264 
z"/>
<path fill="#0A0909" opacity="1.000000" stroke="none" 
	d="
M354.807648,303.204041 
	C355.052399,303.764862 354.998749,304.264313 354.945099,304.763763 
	C354.496918,304.650055 354.048767,304.536377 353.600586,304.422699 
	C353.903473,303.996033 354.206329,303.569366 354.807648,303.204041 
z"/>
<path fill="#061106" opacity="1.000000" stroke="none" 
	d="
M356.505524,265.331421 
	C355.963623,264.987640 355.638702,264.429291 355.313782,263.870911 
	C355.591705,263.743744 355.869659,263.616577 356.147583,263.489410 
	C356.339203,264.031891 356.530823,264.574402 356.505524,265.331421 
z"/>
<path fill="#061106" opacity="1.000000" stroke="none" 
	d="
M289.187592,229.900208 
	C289.374054,229.342926 289.636536,229.052078 289.899048,228.761230 
	C290.094116,229.283478 290.289185,229.805740 290.484253,230.328003 
	C290.077362,230.274231 289.670502,230.220444 289.187592,229.900208 
z"/>
<path fill="#0A0909" opacity="1.000000" stroke="none" 
	d="
M344.742920,304.185577 
	C345.353058,303.828674 345.900482,303.733826 346.447906,303.638977 
	C346.427277,303.928528 346.421814,304.467743 346.383728,304.470062 
	C345.818420,304.504395 345.248810,304.467621 344.742920,304.185577 
z"/>
<path fill="#061106" opacity="1.000000" stroke="none" 
	d="
M353.305481,261.954468 
	C353.007599,261.550812 353.006653,261.110138 353.006531,260.339111 
	C353.522522,260.239838 354.037720,260.470886 354.552917,260.701965 
	C354.236115,261.107147 353.919281,261.512329 353.305481,261.954468 
z"/>
<path fill="#040505" opacity="1.000000" stroke="none" 
	d="
M258.671143,274.038330 
	C258.975983,274.441895 258.985626,274.886993 258.995209,275.666077 
	C258.478577,275.769653 257.962036,275.539276 257.445496,275.308929 
	C257.755676,274.899261 258.065826,274.489563 258.671143,274.038330 
z"/>
<path fill="#061106" opacity="1.000000" stroke="none" 
	d="
M305.398010,309.954437 
	C305.792267,309.713989 306.184448,309.715729 306.574402,309.745880 
	C306.585358,309.746735 306.572876,310.050751 306.571350,310.213409 
	C306.179413,310.209167 305.787506,310.204926 305.398010,309.954437 
z"/>
<path fill="#061106" opacity="1.000000" stroke="none" 
	d="
M351.536530,238.389221 
	C351.652100,237.941452 351.936340,237.669785 352.220581,237.398102 
	C352.333008,237.515839 352.549591,237.730087 352.542816,237.737442 
	C352.276276,238.025116 351.989410,238.294006 351.536530,238.389221 
z"/>
<path fill="#061106" opacity="1.000000" stroke="none" 
	d="
M306.045502,237.395264 
	C306.286743,237.790695 306.285034,238.184052 306.254852,238.575211 
	C306.253998,238.586182 305.949127,238.573700 305.786011,238.572144 
	C305.790192,238.179047 305.794373,237.785980 306.045502,237.395264 
z"/>
<path fill="#061106" opacity="1.000000" stroke="none" 
	d="
M282.923309,266.782959 
	C282.534119,267.076294 282.128937,267.030273 281.421875,266.932068 
	C281.052368,266.478882 280.984741,266.077881 280.918884,265.372253 
	C281.582825,265.526276 282.245056,265.984924 282.923309,266.782959 
z"/>
<path fill="#061106" opacity="1.000000" stroke="none" 
	d="
M352.045227,233.394440 
	C352.286835,233.790512 352.285065,234.184677 352.254883,234.576660 
	C352.254028,234.587631 351.948639,234.575119 351.785217,234.573563 
	C351.789459,234.179794 351.793671,233.786011 352.045227,233.394440 
z"/>
<path fill="#23B646" opacity="1.000000" stroke="none" 
	d="
M262.289673,224.902588 
	C262.694763,224.492645 263.517944,224.151627 264.703369,223.763000 
	C265.104126,223.892929 265.142578,224.070480 265.209351,224.517914 
	C264.394318,224.849045 263.551025,224.910278 262.289673,224.902588 
z"/>
<path fill="#061106" opacity="1.000000" stroke="none" 
	d="
M353.495483,271.997192 
	C353.757233,271.974274 353.816711,272.358307 353.781677,272.548981 
	C353.363556,272.812561 352.980499,272.885498 352.305420,272.939331 
	C352.420166,272.620178 352.826965,272.320129 353.495483,271.997192 
z"/>
<path fill="#061106" opacity="1.000000" stroke="none" 
	d="
M342.715454,278.034668 
	C342.566803,278.384857 342.111877,278.739960 341.352539,279.094574 
	C341.501831,278.742584 341.955475,278.391052 342.715454,278.034668 
z"/>
<path fill="#061106" opacity="1.000000" stroke="none" 
	d="
M298.931885,276.681366 
	C298.985168,276.811737 298.504913,276.758911 298.334595,276.587830 
	C298.445068,276.251282 298.683197,276.296021 298.931885,276.681366 
z"/>
<path fill="#061106" opacity="1.000000" stroke="none" 
	d="
M284.855713,268.547058 
	C284.640869,268.779358 284.384491,268.681793 284.135986,268.209656 
	C284.345337,268.055908 284.568756,268.183258 284.855713,268.547058 
z"/>
<path fill="#061106" opacity="1.000000" stroke="none" 
	d="
M344.763184,277.048157 
	C344.899170,277.289520 344.746368,277.502777 344.275330,277.609161 
	C344.196167,277.371490 344.368622,277.210754 344.763184,277.048157 
z"/>
<path fill="#0A0909" opacity="1.000000" stroke="none" 
	d="
M312.552460,319.464966 
	C312.588104,319.523468 312.516815,319.406433 312.552460,319.464966 
z"/>
<path fill="#0A0909" opacity="1.000000" stroke="none" 
	d="
M340.531647,314.550262 
	C340.475922,314.583344 340.587372,314.517181 340.531647,314.550262 
z"/>
<path fill="#061106" opacity="1.000000" stroke="none" 
	d="
M351.972351,224.837433 
	C351.945679,224.628235 352.198334,224.375946 352.710114,224.045883 
	C352.730072,224.243515 352.490906,224.518921 351.972351,224.837433 
z"/>
<path fill="#0A0909" opacity="1.000000" stroke="none" 
	d="
M292.466736,307.449280 
	C292.522827,307.415955 292.410614,307.482574 292.466736,307.449280 
z"/>
<path fill="#061106" opacity="1.000000" stroke="none" 
	d="
M267.315277,281.995972 
	C267.004913,282.017151 266.995575,281.528564 266.994934,281.284546 
	C267.321869,281.162598 267.649384,281.284698 268.108521,281.642090 
	C268.035309,281.909851 267.830475,281.942322 267.315277,281.995972 
z"/>
<path fill="#061106" opacity="1.000000" stroke="none" 
	d="
M269.160126,282.433044 
	C269.369293,282.188049 269.650208,282.276123 269.970215,282.732178 
	C269.756653,282.931366 269.497528,282.820007 269.160126,282.433044 
z"/>
<path fill="#061106" opacity="1.000000" stroke="none" 
	d="
M329.119995,237.878693 
	C329.083069,237.673096 329.278046,237.412140 329.728424,237.144440 
	C329.863556,237.449524 329.652954,237.678055 329.119995,237.878693 
z"/>
<path fill="#061106" opacity="1.000000" stroke="none" 
	d="
M281.139954,289.333221 
	C281.323517,289.237885 281.630798,289.343597 282.021912,289.685608 
	C281.771637,289.908569 281.490967,289.779358 281.139954,289.333221 
z"/>
<path fill="#061106" opacity="1.000000" stroke="none" 
	d="
M328.753967,239.999420 
	C328.729553,240.110962 328.453003,240.222519 328.087006,240.166443 
	C328.165649,239.998993 328.333740,239.999207 328.753967,239.999420 
z"/>
<path fill="#454849" opacity="1.000000" stroke="none" 
	d="
M300.548706,402.549622 
	C299.146423,398.305634 298.251038,394.098877 297.600769,389.631714 
	C298.915771,393.776489 299.985718,398.181671 300.548706,402.549622 
z"/>
<path fill="#010101" opacity="1.000000" stroke="none" 
	d="
M339.569336,401.443115 
	C339.848816,400.858948 340.307892,400.516296 340.766937,400.173645 
	C340.760376,400.757599 340.753845,401.341522 340.447327,402.030701 
	C340.014587,401.985443 339.881775,401.835022 339.569336,401.443115 
z"/>
<path fill="#061106" opacity="1.000000" stroke="none" 
	d="
M304.799133,179.134216 
	C302.066315,181.162262 298.934387,183.124359 295.444672,185.111572 
	C298.191284,183.113876 301.295654,181.091064 304.799133,179.134216 
z"/>
<path fill="#061106" opacity="1.000000" stroke="none" 
	d="
M288.753418,188.054306 
	C287.731567,188.800369 286.288574,189.521729 284.487244,190.285614 
	C285.530060,189.561951 286.931152,188.795776 288.753418,188.054306 
z"/>
<path fill="#061106" opacity="1.000000" stroke="none" 
	d="
M294.719727,185.060257 
	C293.999329,185.767853 292.884186,186.442490 291.427185,187.154449 
	C292.165222,186.470291 293.245117,185.748795 294.719727,185.060257 
z"/>
<path fill="#061106" opacity="1.000000" stroke="none" 
	d="
M308.676453,177.029510 
	C307.998993,177.778183 306.929077,178.504578 305.528229,179.246399 
	C306.226196,178.510284 307.255096,177.758759 308.676453,177.029510 
z"/>
<path fill="#061106" opacity="1.000000" stroke="none" 
	d="
M342.124359,207.154541 
	C336.727753,210.563110 331.095062,214.315643 325.019623,217.103271 
	C322.911072,218.070755 319.451843,217.228333 317.058472,216.183853 
	C313.159027,214.482132 309.628418,211.935165 305.713135,209.462936 
	C310.257904,207.448471 312.783417,211.520844 315.746124,213.631378 
	C320.172607,216.784683 323.890411,215.823044 328.089142,213.602768 
	C332.531464,211.253677 337.164581,209.265396 342.124359,207.154541 
z"/>
<path fill="#061106" opacity="1.000000" stroke="none" 
	d="
M307.962769,200.879211 
	C315.883514,192.932281 321.459259,192.053635 332.618652,197.048615 
	C332.471008,197.990311 331.975433,198.818726 331.261749,200.011734 
	C324.387878,193.961761 317.747498,195.889542 311.135254,200.201096 
	C310.378021,200.694885 309.300598,200.697693 307.962769,200.879211 
z"/>
<path fill="#061106" opacity="1.000000" stroke="none" 
	d="
M346.376129,189.996185 
	C351.437500,185.081894 345.408630,184.038345 343.037659,181.408249 
	C344.773071,181.846817 346.885468,182.285797 348.501495,183.427429 
	C349.612854,184.212555 350.909821,186.320526 350.554688,187.212326 
	C350.061737,188.450119 348.097565,189.102020 346.376129,189.996185 
z"/>
<path fill="#061106" opacity="1.000000" stroke="none" 
	d="
M305.002808,208.574707 
	C303.750305,207.874069 302.499603,206.765930 301.248901,205.657791 
	C302.925354,204.104752 304.601807,202.551727 306.639130,200.999146 
	C306.334869,203.388809 305.669739,205.778015 305.002808,208.574707 
z"/>
<path fill="#061106" opacity="1.000000" stroke="none" 
	d="
M352.686279,201.033676 
	C350.959900,202.400085 348.841675,203.742813 346.364960,205.095154 
	C348.102448,203.739853 350.198425,202.374924 352.686279,201.033676 
z"/>
<path fill="#061106" opacity="1.000000" stroke="none" 
	d="
M334.880280,196.860229 
	C336.395416,195.536179 338.322784,194.266678 340.599792,192.963837 
	C339.063782,194.258575 337.178162,195.586670 334.880280,196.860229 
z"/>
<path fill="#061106" opacity="1.000000" stroke="none" 
	d="
M341.325195,192.967865 
	C342.397858,191.982880 343.856995,191.020218 345.652191,190.022339 
	C344.562714,190.988159 343.137177,191.989182 341.325195,192.967865 
z"/>
<path fill="#061106" opacity="1.000000" stroke="none" 
	d="
M356.028442,199.116837 
	C355.522369,199.795639 354.620544,200.428543 353.383789,201.073730 
	C353.910187,200.414307 354.771423,199.742630 356.028442,199.116837 
z"/>
<path fill="#061106" opacity="1.000000" stroke="none" 
	d="
M345.160217,205.163757 
	C344.917694,205.803436 344.296997,206.410797 343.339600,207.043228 
	C343.595947,206.422684 344.188995,205.777054 345.160217,205.163757 
z"/>
<path fill="#1B1C1E" opacity="1.000000" stroke="none" 
	d="
M255.110611,425.649902 
	C252.211746,428.616302 249.801880,427.608643 247.479156,425.076782 
	C244.493729,421.822632 241.412582,418.656311 238.131958,415.198425 
	C238.908722,415.081268 239.607178,414.975952 240.654495,414.751801 
	C244.776047,416.548187 248.704163,418.221710 252.244217,420.498627 
	C253.641006,421.397003 254.172806,423.640228 255.110611,425.649902 
z"/>
<path fill="#1B1C1E" opacity="1.000000" stroke="none" 
	d="
M223.732330,389.369141 
	C225.618774,388.484070 228.598709,386.922333 229.315002,387.635193 
	C232.929581,391.232330 235.954559,395.421936 239.111557,399.776306 
	C233.377686,397.521240 226.425735,396.788666 223.732330,389.369141 
z"/>
<path fill="#1FB240" opacity="1.000000" stroke="none" 
	d="
M365.748932,225.903351 
	C365.267670,223.353516 365.130859,220.669693 364.997437,217.544678 
	C368.762451,219.563766 366.905731,222.732391 365.748932,225.903351 
z"/>
<path fill="#1FB240" opacity="1.000000" stroke="none" 
	d="
M360.090759,219.611877 
	C359.236633,220.011993 358.580017,220.164642 357.588867,220.322433 
	C359.359741,219.046188 361.465149,217.764801 363.762543,216.752853 
	C362.732452,217.802994 361.510345,218.583710 360.090759,219.611877 
z"/>
<path fill="#23B646" opacity="1.000000" stroke="none" 
	d="
M296.778320,296.887878 
	C296.206940,297.112762 295.504730,297.025757 294.449646,296.906250 
	C293.167480,296.087646 292.238190,295.301544 291.131012,294.263489 
	C292.851227,294.866394 294.749359,295.721222 296.778320,296.887878 
z"/>
<path fill="#1FB240" opacity="1.000000" stroke="none" 
	d="
M359.337952,269.979492 
	C358.936676,269.950287 358.963959,269.485107 358.993469,269.254089 
	C360.707733,268.237732 362.392456,267.452454 364.421234,266.583221 
	C364.807648,270.129089 362.072021,269.780426 359.337952,269.979492 
z"/>
<path fill="#1FB240" opacity="1.000000" stroke="none" 
	d="
M307.265106,282.810608 
	C309.063690,283.389771 310.930359,284.333527 312.958862,285.580658 
	C311.191498,284.981110 309.262360,284.078156 307.265106,282.810608 
z"/>
<path fill="#23B646" opacity="1.000000" stroke="none" 
	d="
M334.772858,304.718506 
	C333.877045,305.637390 332.787781,306.316284 331.371277,307.027649 
	C332.222473,306.199554 333.400940,305.339020 334.772858,304.718506 
z"/>
<path fill="#1FB240" opacity="1.000000" stroke="none" 
	d="
M288.329163,272.004028 
	C289.036774,271.943848 289.822144,272.220856 290.786011,272.765686 
	C290.111969,272.802765 289.259430,272.571991 288.329163,272.004028 
z"/>
<path fill="#23B646" opacity="1.000000" stroke="none" 
	d="
M330.736694,307.041107 
	C330.591888,307.407135 330.131989,307.767792 329.365112,308.133575 
	C329.512634,307.771027 329.967133,307.403381 330.736694,307.041107 
z"/>
<path fill="#061106" opacity="1.000000" stroke="none" 
	d="
M266.155762,280.578369 
	C264.635162,280.070496 262.898254,279.291687 261.227783,278.110291 
	C262.842621,278.574280 264.391083,279.440857 266.155762,280.578369 
z"/>
</svg>